  0
SECTION
  2
HEADER
  9
$ACADVER
  1
AC1024
  9
$ACADMAINTVER
 70
     6
  9
$DWGCODEPAGE
  3
ANSI_1252
  9
$INSBASE
 10
0.0
 20
0.0
 30
0.0
  9
$EXTMIN
 10
1.000000000000000E+20
 20
1.000000000000000E+20
 30
1.000000000000000E+20
  9
$EXTMAX
 10
-1.000000000000000E+20
 20
-1.000000000000000E+20
 30
-1.000000000000000E+20
  9
$LIMMIN
 10
0.0
 20
0.0
  9
$LIMMAX
 10
12.0
 20
9.0
  9
$ORTHOMODE
 70
     0
  9
$REGENMODE
 70
     1
  9
$FILLMODE
 70
     1
  9
$QTEXTMODE
 70
     0
  9
$MIRRTEXT
 70
     1
  9
$LTSCALE
 40
1.0
  9
$ATTMODE
 70
     1
  9
$TEXTSIZE
 40
0.2
  9
$TRACEWID
 40
0.05
  9
$TEXTSTYLE
  7
Standard
  9
$CLAYER
  8
0
  9
$CELTYPE
  6
ByLayer
  9
$CECOLOR
 62
   256
  9
$CELTSCALE
 40
1.0
  9
$DISPSILH
 70
     0
  9
$DIMSCALE
 40
1.0
  9
$DIMASZ
 40
0.18
  9
$DIMEXO
 40
0.0625
  9
$DIMDLI
 40
0.38
  9
$DIMRND
 40
0.0
  9
$DIMDLE
 40
0.0
  9
$DIMEXE
 40
0.18
  9
$DIMTP
 40
0.0
  9
$DIMTM
 40
0.0
  9
$DIMTXT
 40
0.18
  9
$DIMCEN
 40
0.09
  9
$DIMTSZ
 40
0.0
  9
$DIMTOL
 70
     0
  9
$DIMLIM
 70
     0
  9
$DIMTIH
 70
     1
  9
$DIMTOH
 70
     1
  9
$DIMSE1
 70
     0
  9
$DIMSE2
 70
     0
  9
$DIMTAD
 70
     0
  9
$DIMZIN
 70
     0
  9
$DIMBLK
  1

  9
$DIMASO
 70
     1
  9
$DIMSHO
 70
     1
  9
$DIMPOST
  1

  9
$DIMAPOST
  1

  9
$DIMALT
 70
     0
  9
$DIMALTD
 70
     2
  9
$DIMALTF
 40
25.4
  9
$DIMLFAC
 40
1.0
  9
$DIMTOFL
 70
     0
  9
$DIMTVP
 40
0.0
  9
$DIMTIX
 70
     0
  9
$DIMSOXD
 70
     0
  9
$DIMSAH
 70
     0
  9
$DIMBLK1
  1

  9
$DIMBLK2
  1

  9
$DIMSTYLE
  2
Standard
  9
$DIMCLRD
 70
     0
  9
$DIMCLRE
 70
     0
  9
$DIMCLRT
 70
     0
  9
$DIMTFAC
 40
1.0
  9
$DIMGAP
 40
0.09
  9
$DIMJUST
 70
     0
  9
$DIMSD1
 70
     0
  9
$DIMSD2
 70
     0
  9
$DIMTOLJ
 70
     1
  9
$DIMTZIN
 70
     0
  9
$DIMALTZ
 70
     0
  9
$DIMALTTZ
 70
     0
  9
$DIMUPT
 70
     0
  9
$DIMDEC
 70
     4
  9
$DIMTDEC
 70
     4
  9
$DIMALTU
 70
     2
  9
$DIMALTTD
 70
     2
  9
$DIMTXSTY
  7
Standard
  9
$DIMAUNIT
 70
     0
  9
$DIMADEC
 70
     0
  9
$DIMALTRND
 40
0.0
  9
$DIMAZIN
 70
     0
  9
$DIMDSEP
 70
    46
  9
$DIMATFIT
 70
     3
  9
$DIMFRAC
 70
     0
  9
$DIMLDRBLK
  1

  9
$DIMLUNIT
 70
     2
  9
$DIMLWD
 70
    -2
  9
$DIMLWE
 70
    -2
  9
$DIMTMOVE
 70
     0
  9
$DIMFXL
 40
1.0
  9
$DIMFXLON
 70
     0
  9
$DIMJOGANG
 40
0.7853981633974483
  9
$DIMTFILL
 70
     0
  9
$DIMTFILLCLR
 70
     0
  9
$DIMARCSYM
 70
     0
  9
$DIMLTYPE
  6

  9
$DIMLTEX1
  6

  9
$DIMLTEX2
  6

  9
$DIMTXTDIRECTION
 70
     0
  9
$LUNITS
 70
     2
  9
$LUPREC
 70
     4
  9
$SKETCHINC
 40
0.1
  9
$FILLETRAD
 40
0.5
  9
$AUNITS
 70
     0
  9
$AUPREC
 70
     0
  9
$MENU
  1
.
  9
$ELEVATION
 40
0.0
  9
$PELEVATION
 40
0.0
  9
$THICKNESS
 40
0.0
  9
$LIMCHECK
 70
     0
  9
$CHAMFERA
 40
0.5
  9
$CHAMFERB
 40
0.5
  9
$CHAMFERC
 40
1.0
  9
$CHAMFERD
 40
0.0
  9
$SKPOLY
 70
     0
  9
$TDCREATE
 40
2458474.402267905
  9
$TDUCREATE
 40
2458474.735601238
  9
$TDUPDATE
 40
2458474.402268021
  9
$TDUUPDATE
 40
2458474.735601354
  9
$TDINDWG
 40
0.0000000116
  9
$TDUSRTIMER
 40
0.0000000116
  9
$USRTIMER
 70
     1
  9
$ANGBASE
 50
0.0
  9
$ANGDIR
 70
     0
  9
$PDMODE
 70
     0
  9
$PDSIZE
 40
0.0
  9
$PLINEWID
 40
0.0
  9
$SPLFRAME
 70
     0
  9
$SPLINETYPE
 70
     6
  9
$SPLINESEGS
 70
     8
  9
$HANDSEED
  5
83
  9
$SURFTAB1
 70
     6
  9
$SURFTAB2
 70
     6
  9
$SURFTYPE
 70
     6
  9
$SURFU
 70
     6
  9
$SURFV
 70
     6
  9
$UCSBASE
  2

  9
$UCSNAME
  2

  9
$UCSORG
 10
0.0
 20
0.0
 30
0.0
  9
$UCSXDIR
 10
1.0
 20
0.0
 30
0.0
  9
$UCSYDIR
 10
0.0
 20
1.0
 30
0.0
  9
$UCSORTHOREF
  2

  9
$UCSORTHOVIEW
 70
     0
  9
$UCSORGTOP
 10
0.0
 20
0.0
 30
0.0
  9
$UCSORGBOTTOM
 10
0.0
 20
0.0
 30
0.0
  9
$UCSORGLEFT
 10
0.0
 20
0.0
 30
0.0
  9
$UCSORGRIGHT
 10
0.0
 20
0.0
 30
0.0
  9
$UCSORGFRONT
 10
0.0
 20
0.0
 30
0.0
  9
$UCSORGBACK
 10
0.0
 20
0.0
 30
0.0
  9
$PUCSBASE
  2

  9
$PUCSNAME
  2

  9
$PUCSORG
 10
0.0
 20
0.0
 30
0.0
  9
$PUCSXDIR
 10
1.0
 20
0.0
 30
0.0
  9
$PUCSYDIR
 10
0.0
 20
1.0
 30
0.0
  9
$PUCSORTHOREF
  2

  9
$PUCSORTHOVIEW
 70
     0
  9
$PUCSORGTOP
 10
0.0
 20
0.0
 30
0.0
  9
$PUCSORGBOTTOM
 10
0.0
 20
0.0
 30
0.0
  9
$PUCSORGLEFT
 10
0.0
 20
0.0
 30
0.0
  9
$PUCSORGRIGHT
 10
0.0
 20
0.0
 30
0.0
  9
$PUCSORGFRONT
 10
0.0
 20
0.0
 30
0.0
  9
$PUCSORGBACK
 10
0.0
 20
0.0
 30
0.0
  9
$USERI1
 70
     0
  9
$USERI2
 70
     0
  9
$USERI3
 70
     0
  9
$USERI4
 70
     0
  9
$USERI5
 70
     0
  9
$USERR1
 40
0.0
  9
$USERR2
 40
0.0
  9
$USERR3
 40
0.0
  9
$USERR4
 40
0.0
  9
$USERR5
 40
0.0
  9
$WORLDVIEW
 70
     1
  9
$SHADEDGE
 70
     3
  9
$SHADEDIF
 70
    70
  9
$TILEMODE
 70
     1
  9
$MAXACTVP
 70
    64
  9
$PINSBASE
 10
0.0
 20
0.0
 30
0.0
  9
$PLIMCHECK
 70
     0
  9
$PEXTMIN
 10
1.000000000000000E+20
 20
1.000000000000000E+20
 30
1.000000000000000E+20
  9
$PEXTMAX
 10
-1.000000000000000E+20
 20
-1.000000000000000E+20
 30
-1.000000000000000E+20
  9
$PLIMMIN
 10
0.0
 20
0.0
  9
$PLIMMAX
 10
12.0
 20
9.0
  9
$UNITMODE
 70
     0
  9
$VISRETAIN
 70
     1
  9
$PLINEGEN
 70
     0
  9
$PSLTSCALE
 70
     1
  9
$TREEDEPTH
 70
  3020
  9
$CMLSTYLE
  2
Standard
  9
$CMLJUST
 70
     0
  9
$CMLSCALE
 40
1.0
  9
$PROXYGRAPHICS
 70
     1
  9
$MEASUREMENT
 70
     0
  9
$CELWEIGHT
370
    -1
  9
$ENDCAPS
280
     0
  9
$JOINSTYLE
280
     0
  9
$LWDISPLAY
290
     1
  9
$INSUNITS
 70
     1
  9
$HYPERLINKBASE
  1

  9
$STYLESHEET
  1

  9
$XEDIT
290
     1
  9
$CEPSNTYPE
380
     0
  9
$PSTYLEMODE
290
     1
  9
$FINGERPRINTGUID
  2
{E2BDC589-CA5A-469A-851E-7F3008F5F3B2}
  9
$VERSIONGUID
  2
{FAEB1C32-E019-11D5-929B-00C0DF256EC4}
  9
$EXTNAMES
290
     1
  9
$PSVPSCALE
 40
0.0
  9
$OLESTARTUP
290
     0
  9
$SORTENTS
280
   127
  9
$INDEXCTL
280
     0
  9
$HIDETEXT
280
     1
  9
$XCLIPFRAME
280
     2
  9
$HALOGAP
280
     0
  9
$OBSCOLOR
 70
   257
  9
$OBSLTYPE
280
     0
  9
$INTERSECTIONDISPLAY
280
     0
  9
$INTERSECTIONCOLOR
 70
   257
  9
$DIMASSOC
280
     2
  9
$PROJECTNAME
  1

  9
$CAMERADISPLAY
290
     0
  9
$LENSLENGTH
 40
50.0
  9
$CAMERAHEIGHT
 40
0.0
  9
$STEPSPERSEC
 40
2.0
  9
$STEPSIZE
 40
6.0
  9
$3DDWFPREC
 40
2.0
  9
$PSOLWIDTH
 40
0.25
  9
$PSOLHEIGHT
 40
4.0
  9
$LOFTANG1
 40
1.570796326794897
  9
$LOFTANG2
 40
1.570796326794897
  9
$LOFTMAG1
 40
0.0
  9
$LOFTMAG2
 40
0.0
  9
$LOFTPARAM
 70
     7
  9
$LOFTNORMALS
280
     1
  9
$LATITUDE
 40
37.795
  9
$LONGITUDE
 40
-122.394
  9
$NORTHDIRECTION
 40
0.0
  9
$TIMEZONE
 70
 -8000
  9
$LIGHTGLYPHDISPLAY
280
     1
  9
$TILEMODELIGHTSYNCH
280
     1
  9
$CMATERIAL
347
3C
  9
$SOLIDHIST
280
     1
  9
$SHOWHIST
280
     1
  9
$DWFFRAME
280
     2
  9
$DGNFRAME
280
     2
  9
$REALWORLDSCALE
290
     1
  9
$INTERFERECOLOR
 62
   256
  9
$CSHADOW
280
     0
  9
$SHADOWPLANELOCATION
 40
0.0
  0
ENDSEC
  0
SECTION
  2
CLASSES
  0
CLASS
  1
ACDBDICTIONARYWDFLT
  2
AcDbDictionaryWithDefault
  3
ObjectDBX Classes
 90
        0
 91
        4
280
     0
281
     0
  0
CLASS
  1
VISUALSTYLE
  2
AcDbVisualStyle
  3
ObjectDBX Classes
 90
     4095
 91
        4
280
     0
281
     0
  0
CLASS
  1
MATERIAL
  2
AcDbMaterial
  3
ObjectDBX Classes
 90
     1153
 91
        4
280
     0
281
     0
  0
CLASS
  1
SUN
  2
AcDbSun
  3
SCENEOE
 90
     1024
 91
        4
280
     0
281
     0
  0
ENDSEC
  0
SECTION
  2
TABLES
  0
TABLE
  2
VPORT
  5
8
330
0
100
AcDbSymbolTable
 70
     1
  0
VPORT
  5
29
330
8
100
AcDbSymbolTableRecord
100
AcDbViewportTableRecord
  2
*Active
 70
     0
 10
0.0
 20
0.0
 11
1.0
 21
1.0
 12
0.0
 22
0.0
 13
0.0
 23
0.0
 14
0.5
 24
0.5
 15
0.5
 25
0.5
 16
0.0
 26
0.0
 36
1.0
 17
306.0
 27
396.0
 37
0.0
 40
792.0
 41
0.7727272727272727
 42
50.0
 43
0.0
 44
0.0
 50
0.0
 51
0.0
 71
     0
 72
   100
 73
     1
 74
     3
 75
     0
 76
     0
 77
     0
 78
     0
281
     0
 65
     1
110
0.0
120
0.0
130
0.0
111
1.0
121
0.0
131
0.0
112
0.0
122
1.0
132
0.0
 79
     0
146
0.0
 60
     3
 61
     5
292
     1
282
     1
141
0.0
142
0.0
 63
   250
361
3F
  0
ENDTAB
  0
TABLE
  2
LTYPE
  5
5
330
0
100
AcDbSymbolTable
 70
     1
  0
LTYPE
  5
14
330
5
100
AcDbSymbolTableRecord
100
AcDbLinetypeTableRecord
  2
ByBlock
 70
     0
  3

 72
    65
 73
     0
 40
0.0
  0
LTYPE
  5
15
330
5
100
AcDbSymbolTableRecord
100
AcDbLinetypeTableRecord
  2
ByLayer
 70
     0
  3

 72
    65
 73
     0
 40
0.0
  0
LTYPE
  5
16
330
5
100
AcDbSymbolTableRecord
100
AcDbLinetypeTableRecord
  2
Continuous
 70
     0
  3
Solid line
 72
    65
 73
     0
 40
0.0
  0
ENDTAB
  0
TABLE
  2
LAYER
  5
2
330
0
100
AcDbSymbolTable
 70
     2
  0
LAYER
  5
10
330
2
100
AcDbSymbolTableRecord
100
AcDbLayerTableRecord
  2
0
 70
     0
 62
     7
  6
Continuous
370
    -3
390
F
347
3E
  0
LAYER
  5
40
330
2
100
AcDbSymbolTableRecord
100
AcDbLayerTableRecord
  2
Layer 1
 70
     0
 62
     7
  6
Continuous
370
    -3
390
F
347
3E
  0
ENDTAB
  0
TABLE
  2
STYLE
  5
3
330
0
100
AcDbSymbolTable
 70
     1
  0
STYLE
  5
11
330
3
100
AcDbSymbolTableRecord
100
AcDbTextStyleTableRecord
  2
Standard
 70
     0
 40
0.0
 41
1.0
 50
0.0
 71
     0
 42
0.2
  3
txt
  4

  0
ENDTAB
  0
TABLE
  2
VIEW
  5
6
330
0
100
AcDbSymbolTable
 70
     0
  0
ENDTAB
  0
TABLE
  2
UCS
  5
7
330
0
100
AcDbSymbolTable
 70
     0
  0
ENDTAB
  0
TABLE
  2
APPID
  5
9
330
0
100
AcDbSymbolTable
 70
     1
  0
APPID
  5
12
330
9
100
AcDbSymbolTableRecord
100
AcDbRegAppTableRecord
  2
ACAD
 70
     0
  0
ENDTAB
  0
TABLE
  2
DIMSTYLE
  5
A
330
0
100
AcDbSymbolTable
 70
     1
100
AcDbDimStyleTable
  0
DIMSTYLE
105
27
330
A
100
AcDbSymbolTableRecord
100
AcDbDimStyleTableRecord
  2
Standard
 70
     0
178
     0
340
11
  0
ENDTAB
  0
TABLE
  2
BLOCK_RECORD
  5
1
330
0
100
AcDbSymbolTable
 70
    12
  0
BLOCK_RECORD
  5
1F
330
1
100
AcDbSymbolTableRecord
100
AcDbBlockTableRecord
  2
*Model_Space
340
22
 70
     0
280
     1
281
     0
  0
BLOCK_RECORD
  5
1B
330
1
100
AcDbSymbolTableRecord
100
AcDbBlockTableRecord
  2
*Paper_Space
340
1E
 70
     0
280
     1
281
     0
  0
BLOCK_RECORD
  5
23
330
1
100
AcDbSymbolTableRecord
100
AcDbBlockTableRecord
  2
*Paper_Space0
340
26
 70
     0
280
     1
281
     0
  0
BLOCK_RECORD
  5
41
330
1
100
AcDbSymbolTableRecord
100
AcDbBlockTableRecord
  2
block 2
340
0
102
{BLKREFS
331
42
102
}
 70
     0
280
     1
281
     0
  0
BLOCK_RECORD
  5
4C
330
1
100
AcDbSymbolTableRecord
100
AcDbBlockTableRecord
  2
block 3
340
0
102
{BLKREFS
331
4D
102
}
 70
     0
280
     1
281
     0
  0
BLOCK_RECORD
  5
57
330
1
100
AcDbSymbolTableRecord
100
AcDbBlockTableRecord
  2
block 4
340
0
102
{BLKREFS
331
58
102
}
 70
     0
280
     1
281
     0
  0
BLOCK_RECORD
  5
5B
330
1
100
AcDbSymbolTableRecord
100
AcDbBlockTableRecord
  2
block 5
340
0
102
{BLKREFS
331
5C
102
}
 70
     0
280
     1
281
     0
  0
BLOCK_RECORD
  5
5F
330
1
100
AcDbSymbolTableRecord
100
AcDbBlockTableRecord
  2
block 6
340
0
102
{BLKREFS
331
60
102
}
 70
     0
280
     1
281
     0
  0
BLOCK_RECORD
  5
63
330
1
100
AcDbSymbolTableRecord
100
AcDbBlockTableRecord
  2
block 7
340
0
102
{BLKREFS
331
64
102
}
 70
     0
280
     1
281
     0
  0
BLOCK_RECORD
  5
68
330
1
100
AcDbSymbolTableRecord
100
AcDbBlockTableRecord
  2
block 8
340
0
102
{BLKREFS
331
69
102
}
 70
     0
280
     1
281
     0
  0
BLOCK_RECORD
  5
6D
330
1
100
AcDbSymbolTableRecord
100
AcDbBlockTableRecord
  2
block 9
340
0
102
{BLKREFS
331
6E
102
}
 70
     0
280
     1
281
     0
  0
BLOCK_RECORD
  5
72
330
1
100
AcDbSymbolTableRecord
100
AcDbBlockTableRecord
  2
block 10
340
0
102
{BLKREFS
331
73
102
}
 70
     0
280
     1
281
     0
  0
BLOCK_RECORD
  5
77
330
1
100
AcDbSymbolTableRecord
100
AcDbBlockTableRecord
  2
block 11
340
0
102
{BLKREFS
331
78
102
}
 70
     0
280
     1
281
     0
  0
BLOCK_RECORD
  5
7C
330
1
100
AcDbSymbolTableRecord
100
AcDbBlockTableRecord
  2
block 12
340
0
102
{BLKREFS
331
7D
102
}
 70
     0
280
     1
281
     0
  0
ENDTAB
  0
ENDSEC
  0
SECTION
  2
BLOCKS
  0
BLOCK
  5
20
330
1F
100
AcDbEntity
  8
0
100
AcDbBlockBegin
  2
*Model_Space
 70
     0
 10
0.0
 20
0.0
 30
0.0
  3
*Model_Space
  1

  0
ENDBLK
  5
21
330
1F
100
AcDbEntity
  8
0
100
AcDbBlockEnd
  0
BLOCK
  5
1C
330
1B
100
AcDbEntity
 67
     1
  8
0
100
AcDbBlockBegin
  2
*Paper_Space
 70
     0
 10
0.0
 20
0.0
 30
0.0
  3
*Paper_Space
  1

  0
ENDBLK
  5
1D
330
1B
100
AcDbEntity
 67
     1
  8
0
100
AcDbBlockEnd
  0
BLOCK
  5
24
330
23
100
AcDbEntity
  8
0
100
AcDbBlockBegin
  2
*Paper_Space0
 70
     0
 10
0.0
 20
0.0
 30
0.0
  3
*Paper_Space0
  1

  0
ENDBLK
  5
25
330
23
100
AcDbEntity
  8
0
100
AcDbBlockEnd
  0
BLOCK
  5
43
330
41
100
AcDbEntity
  8
0
100
AcDbBlockBegin
  2
block 2
 70
     0
 10
0.0
 20
0.0
 30
0.0
  3
block 2
  1

  0
POLYLINE
  5
45
330
41
100
AcDbEntity
  8
Layer 1
370
     0
100
AcDb2dPolyline
 66
     1
 10
0.0
 20
0.0
 30
0.0
  0
VERTEX
  5
46
330
45
100
AcDbEntity
  8
Layer 1
370
     0
100
AcDbVertex
100
AcDb2dVertex
 10
-0.0000149234892888
 20
695.8811396881993
 30
0.0
  0
VERTEX
  5
47
330
45
100
AcDbEntity
  8
Layer 1
370
     0
100
AcDbVertex
100
AcDb2dVertex
 10
611.9042824246753
 20
695.8811396881993
 30
0.0
  0
VERTEX
  5
48
330
45
100
AcDbEntity
  8
Layer 1
370
     0
100
AcDbVertex
100
AcDb2dVertex
 10
611.9042824246753
 20
97.84384327866428
 30
0.0
  0
VERTEX
  5
49
330
45
100
AcDbEntity
  8
Layer 1
370
     0
100
AcDbVertex
100
AcDb2dVertex
 10
-0.0000149234892888
 20
97.84384327866428
 30
0.0
  0
VERTEX
  5
4A
330
45
100
AcDbEntity
  8
Layer 1
370
     0
100
AcDbVertex
100
AcDb2dVertex
 10
-0.0000149234892888
 20
695.8811396881993
 30
0.0
  0
SEQEND
  5
4B
330
45
100
AcDbEntity
  8
Layer 1
370
     0
  0
INSERT
  5
4D
330
41
100
AcDbEntity
  8
Layer 1
100
AcDbBlockReference
  2
block 3
 10
0.0
 20
0.0
 30
0.0
  0
ENDBLK
  5
44
330
41
100
AcDbEntity
  8
0
100
AcDbBlockEnd
  0
BLOCK
  5
4E
330
4C
100
AcDbEntity
  8
0
100
AcDbBlockBegin
  2
block 3
 70
     0
 10
0.0
 20
0.0
 30
0.0
  3
block 3
  1

  0
POLYLINE
  5
50
330
4C
100
AcDbEntity
  8
Layer 1
370
     0
100
AcDb2dPolyline
 66
     1
 10
0.0
 20
0.0
 30
0.0
  0
VERTEX
  5
51
330
50
100
AcDbEntity
  8
Layer 1
370
     0
100
AcDbVertex
100
AcDb2dVertex
 10
-0.0000149234892888
 20
695.8811396881993
 30
0.0
  0
VERTEX
  5
52
330
50
100
AcDbEntity
  8
Layer 1
370
     0
100
AcDbVertex
100
AcDb2dVertex
 10
611.9042824246753
 20
695.8811396881993
 30
0.0
  0
VERTEX
  5
53
330
50
100
AcDbEntity
  8
Layer 1
370
     0
100
AcDbVertex
100
AcDb2dVertex
 10
611.9042824246753
 20
97.84384327866428
 30
0.0
  0
VERTEX
  5
54
330
50
100
AcDbEntity
  8
Layer 1
370
     0
100
AcDbVertex
100
AcDb2dVertex
 10
-0.0000149234892888
 20
97.84384327866428
 30
0.0
  0
VERTEX
  5
55
330
50
100
AcDbEntity
  8
Layer 1
370
     0
100
AcDbVertex
100
AcDb2dVertex
 10
-0.0000149234892888
 20
695.8811396881993
 30
0.0
  0
SEQEND
  5
56
330
50
100
AcDbEntity
  8
Layer 1
370
     0
  0
INSERT
  5
58
330
4C
100
AcDbEntity
  8
Layer 1
100
AcDbBlockReference
  2
block 4
 10
0.0
 20
0.0
 30
0.0
  0
ENDBLK
  5
4F
330
4C
100
AcDbEntity
  8
0
100
AcDbBlockEnd
  0
BLOCK
  5
59
330
57
100
AcDbEntity
  8
0
100
AcDbBlockBegin
  2
block 4
 70
     0
 10
0.0
 20
0.0
 30
0.0
  3
block 4
  1

  0
INSERT
  5
5C
330
57
100
AcDbEntity
  8
Layer 1
100
AcDbBlockReference
  2
block 5
 10
0.0
 20
0.0
 30
0.0
  0
ENDBLK
  5
5A
330
57
100
AcDbEntity
  8
0
100
AcDbBlockEnd
  0
BLOCK
  5
5D
330
5B
100
AcDbEntity
  8
0
100
AcDbBlockBegin
  2
block 5
 70
     0
 10
0.0
 20
0.0
 30
0.0
  3
block 5
  1

  0
INSERT
  5
60
330
5B
100
AcDbEntity
  8
Layer 1
100
AcDbBlockReference
  2
block 6
 10
0.0
 20
0.0
 30
0.0
  0
INSERT
  5
78
330
5B
100
AcDbEntity
  8
Layer 1
100
AcDbBlockReference
  2
block 11
 10
0.0
 20
0.0
 30
0.0
  0
INSERT
  5
7D
330
5B
100
AcDbEntity
  8
Layer 1
100
AcDbBlockReference
  2
block 12
 10
0.0
 20
0.0
 30
0.0
  0
ENDBLK
  5
5E
330
5B
100
AcDbEntity
  8
0
100
AcDbBlockEnd
  0
BLOCK
  5
61
330
5F
100
AcDbEntity
  8
0
100
AcDbBlockBegin
  2
block 6
 70
     0
 10
0.0
 20
0.0
 30
0.0
  3
block 6
  1

  0
INSERT
  5
64
330
5F
100
AcDbEntity
  8
Layer 1
100
AcDbBlockReference
  2
block 7
 10
0.0
 20
0.0
 30
0.0
  0
INSERT
  5
69
330
5F
100
AcDbEntity
  8
Layer 1
100
AcDbBlockReference
  2
block 8
 10
0.0
 20
0.0
 30
0.0
  0
INSERT
  5
6E
330
5F
100
AcDbEntity
  8
Layer 1
100
AcDbBlockReference
  2
block 9
 10
0.0
 20
0.0
 30
0.0
  0
INSERT
  5
73
330
5F
100
AcDbEntity
  8
Layer 1
100
AcDbBlockReference
  2
block 10
 10
0.0
 20
0.0
 30
0.0
  0
ENDBLK
  5
62
330
5F
100
AcDbEntity
  8
0
100
AcDbBlockEnd
  0
BLOCK
  5
65
330
63
100
AcDbEntity
  8
0
100
AcDbBlockBegin
  2
block 7
 70
     0
 10
0.0
 20
0.0
 30
0.0
  3
block 7
  1

  0
SPLINE
  5
67
330
63
100
AcDbEntity
  8
Layer 1
370
     0
100
AcDbSpline
210
0.0
220
0.0
230
1.0
 70
    11
 71
     3
 72
    92
 73
    88
 74
     0
 42
0.0000000001
 43
0.0000000001
 12
1.0
 22
0.0
 32
0.0
 13
1.0
 23
0.0
 33
0.0
 40
0.0
 40
0.0
 40
0.0
 40
0.0
 40
1.0
 40
1.0
 40
1.0
 40
2.0
 40
2.0
 40
2.0
 40
3.0
 40
3.0
 40
3.0
 40
4.0
 40
4.0
 40
4.0
 40
5.0
 40
5.0
 40
5.0
 40
6.0
 40
6.0
 40
6.0
 40
7.0
 40
7.0
 40
7.0
 40
8.0
 40
8.0
 40
8.0
 40
9.0
 40
9.0
 40
9.0
 40
10.0
 40
10.0
 40
10.0
 40
11.0
 40
11.0
 40
11.0
 40
12.0
 40
12.0
 40
12.0
 40
13.0
 40
13.0
 40
13.0
 40
14.0
 40
14.0
 40
14.0
 40
15.0
 40
15.0
 40
15.0
 40
16.0
 40
16.0
 40
16.0
 40
17.0
 40
17.0
 40
17.0
 40
18.0
 40
18.0
 40
18.0
 40
19.0
 40
19.0
 40
19.0
 40
20.0
 40
20.0
 40
20.0
 40
21.0
 40
21.0
 40
21.0
 40
22.0
 40
22.0
 40
22.0
 40
23.0
 40
23.0
 40
23.0
 40
24.0
 40
24.0
 40
24.0
 40
25.0
 40
25.0
 40
25.0
 40
26.0
 40
26.0
 40
26.0
 40
27.0
 40
27.0
 40
27.0
 40
28.0
 40
28.0
 40
28.0
 40
29.0
 40
29.0
 40
29.0
 40
29.0
 10
86.03838824205104
 20
97.82448464667686
 30
0.0
 10
86.03838824205104
 20
97.82448464667686
 30
0.0
 10
52.7333179996167
 20
97.82448464667686
 30
0.0
 10
52.7333179996167
 20
97.82448464667686
 30
0.0
 10
23.6290619001602
 20
97.82448464667686
 30
0.0
 10
0.0009438023507755
 20
117.6509127802201
 30
0.0
 10
0.0009438023507755
 20
142.0722524228295
 30
0.0
 10
0.0009438023507755
 20
142.0722524228295
 30
0.0
 10
0.0009438023507755
 20
328.2801158906695
 30
0.0
 10
0.0009438023507755
 20
328.2801158906695
 30
0.0
 10
0.0009438023507755
 20
357.3845030115317
 30
0.0
 10
23.6290619001602
 20
381.012693638786
 30
0.0
 10
52.7333179996167
 20
381.012693638786
 30
0.0
 10
52.7333179996167
 20
381.012693638786
 30
0.0
 10
86.03838824205104
 20
381.012693638786
 30
0.0
 10
86.03838824205104
 20
381.012693638786
 30
0.0
 10
115.1426443415066
 20
381.012693638786
 30
0.0
 10
138.770762439317
 20
357.3845030115317
 30
0.0
 10
138.770762439317
 20
328.2801158906695
 30
0.0
 10
138.770762439317
 20
328.2801158906695
 30
0.0
 10
138.315423038076
 20
294.4731079718476
 30
0.0
 10
138.770762439317
 20
286.649271076707
 30
0.0
 10
138.8882392577671
 20
284.6614585163152
 30
0.0
 10
139.8478511706353
 20
282.436226070291
 30
0.0
 10
141.5100454295198
 20
281.3419878497534
 30
0.0
 10
149.0645706029809
 20
276.3578138126541
 30
0.0
 10
184.0979134800828
 20
256.7541629286243
 30
0.0
 10
184.0979134800828
 20
256.7541629286243
 30
0.0
 10
186.7613314724258
 20
255.214370209058
 30
0.0
 10
187.6769035859452
 20
251.8018515665481
 30
0.0
 10
186.1371168100686
 20
249.135957951421
 30
0.0
 10
186.1371168100686
 20
249.135957951421
 30
0.0
 10
180.5630005270887
 20
239.4785417727562
 30
0.0
 10
180.5630005270887
 20
239.4785417727562
 30
0.0
 10
179.0232137512121
 20
236.8126855112932
 30
0.0
 10
175.6107082812259
 20
235.8971098635975
 30
0.0
 10
172.9448249566049
 20
237.4369025831638
 30
0.0
 10
172.9448249566049
 20
237.4369025831638
 30
0.0
 10
119.2381589133538
 20
268.4433942833621
 30
0.0
 10
119.2381589133538
 20
268.4433942833621
 30
0.0
 10
117.6616536279271
 20
269.3540766011301
 30
0.0
 10
116.6971110505001
 20
270.9232293002624
 30
0.0
 10
116.4914799263142
 20
272.6025753069152
 30
0.0
 10
116.4914799263142
 20
272.6025753069152
 30
0.0
 10
116.4547614167632
 20
272.6025753069152
 30
0.0
 10
116.4547614167632
 20
272.6025753069152
 30
0.0
 10
114.5771494116152
 20
287.7606546288225
 30
0.0
 10
99.28693449570073
 20
299.5967979423713
 30
0.0
 10
80.72866016924218
 20
299.5967979423713
 30
0.0
 10
80.72866016924218
 20
299.5967979423713
 30
0.0
 10
58.04304607242557
 20
299.5967979423713
 30
0.0
 10
58.04304607242557
 20
299.5967979423713
 30
0.0
 10
38.21912244881878
 20
299.5943326005745
 30
0.0
 10
22.12352830155487
 20
286.0910952820232
 30
0.0
 10
22.12352830155487
 20
269.4568738832677
 30
0.0
 10
22.12352830155487
 20
269.4568738832677
 30
0.0
 10
22.12352830155487
 20
176.4716894458288
 30
0.0
 10
22.12352830155487
 20
176.4716894458288
 30
0.0
 10
22.12352830155487
 20
156.6476893004146
 30
0.0
 10
38.21912244881878
 20
140.552033022972
 30
0.0
 10
58.04304607242557
 20
140.552033022972
 30
0.0
 10
58.04304607242557
 20
140.552033022972
 30
0.0
 10
80.72866016924218
 20
140.552033022972
 30
0.0
 10
80.72866016924218
 20
140.552033022972
 30
0.0
 10
99.23800138531351
 20
140.552033022972
 30
0.0
 10
114.4939257704373
 20
154.5791181193908
 30
0.0
 10
116.4376535048877
 20
172.5744696648708
 30
0.0
 10
116.4376535048877
 20
172.5744696648708
 30
0.0
 10
116.4645480388408
 20
172.5744696648708
 30
0.0
 10
116.4645480388408
 20
172.5744696648708
 30
0.0
 10
116.4645480388408
 20
172.5744696648708
 30
0.0
 10
116.4645480388408
 20
213.4709040994385
 30
0.0
 10
116.4645480388408
 20
213.4709040994385
 30
0.0
 10
116.4645480388408
 20
216.5480615504421
 30
0.0
 10
118.963984081106
 20
219.0474698870494
 30
0.0
 10
122.0410923005802
 20
219.0474698870494
 30
0.0
 10
122.0410923005802
 20
219.0474698870494
 30
0.0
 10
133.1942181775776
 20
219.0474698870494
 30
0.0
 10
133.1942181775776
 20
219.0474698870494
 30
0.0
 10
136.2713263970518
 20
219.0474698870494
 30
0.0
 10
138.770762439317
 20
216.5480615504421
 30
0.0
 10
138.770762439317
 20
213.4709040994385
 30
0.0
 10
138.770762439317
 20
213.4709040994385
 30
0.0
 10
138.770762439317
 20
142.0722524228295
 30
0.0
 10
138.770762439317
 20
142.0722524228295
 30
0.0
 10
138.770762439317
 20
117.6509127802201
 30
0.0
 10
115.1426443415066
 20
97.82448464667686
 30
0.0
 10
86.03838824205104
 20
97.82448464667686
 30
0.0
  0
ENDBLK
  5
66
330
63
100
AcDbEntity
  8
0
100
AcDbBlockEnd
  0
BLOCK
  5
6A
330
68
100
AcDbEntity
  8
0
100
AcDbBlockBegin
  2
block 8
 70
     0
 10
0.0
 20
0.0
 30
0.0
  3
block 8
  1

  0
SPLINE
  5
6C
330
68
100
AcDbEntity
  8
Layer 1
370
     0
100
AcDbSpline
210
0.0
220
0.0
230
1.0
 70
    11
 71
     3
 72
    92
 73
    88
 74
     0
 42
0.0000000001
 43
0.0000000001
 12
1.0
 22
0.0
 32
0.0
 13
1.0
 23
0.0
 33
0.0
 40
0.0
 40
0.0
 40
0.0
 40
0.0
 40
1.0
 40
1.0
 40
1.0
 40
2.0
 40
2.0
 40
2.0
 40
3.0
 40
3.0
 40
3.0
 40
4.0
 40
4.0
 40
4.0
 40
5.0
 40
5.0
 40
5.0
 40
6.0
 40
6.0
 40
6.0
 40
7.0
 40
7.0
 40
7.0
 40
8.0
 40
8.0
 40
8.0
 40
9.0
 40
9.0
 40
9.0
 40
10.0
 40
10.0
 40
10.0
 40
11.0
 40
11.0
 40
11.0
 40
12.0
 40
12.0
 40
12.0
 40
13.0
 40
13.0
 40
13.0
 40
14.0
 40
14.0
 40
14.0
 40
15.0
 40
15.0
 40
15.0
 40
16.0
 40
16.0
 40
16.0
 40
17.0
 40
17.0
 40
17.0
 40
18.0
 40
18.0
 40
18.0
 40
19.0
 40
19.0
 40
19.0
 40
20.0
 40
20.0
 40
20.0
 40
21.0
 40
21.0
 40
21.0
 40
22.0
 40
22.0
 40
22.0
 40
23.0
 40
23.0
 40
23.0
 40
24.0
 40
24.0
 40
24.0
 40
25.0
 40
25.0
 40
25.0
 40
26.0
 40
26.0
 40
26.0
 40
27.0
 40
27.0
 40
27.0
 40
28.0
 40
28.0
 40
28.0
 40
29.0
 40
29.0
 40
29.0
 40
29.0
 10
297.074622712742
 20
97.82448464667686
 30
0.0
 10
297.074622712742
 20
97.82448464667686
 30
0.0
 10
263.7695524703076
 20
97.82448464667686
 30
0.0
 10
263.7695524703076
 20
97.82448464667686
 30
0.0
 10
234.665296370852
 20
97.82448464667686
 30
0.0
 10
211.0371782730417
 20
117.6509127802201
 30
0.0
 10
211.0371782730417
 20
142.0722524228295
 30
0.0
 10
211.0371782730417
 20
142.0722524228295
 30
0.0
 10
211.0371782730417
 20
328.2801158906695
 30
0.0
 10
211.0371782730417
 20
328.2801158906695
 30
0.0
 10
211.0371782730417
 20
357.3845030115317
 30
0.0
 10
234.665296370852
 20
381.012693638786
 30
0.0
 10
263.7695524703076
 20
381.012693638786
 30
0.0
 10
263.7695524703076
 20
381.012693638786
 30
0.0
 10
297.074622712742
 20
381.012693638786
 30
0.0
 10
297.074622712742
 20
381.012693638786
 30
0.0
 10
326.1788788121976
 20
381.012693638786
 30
0.0
 10
349.8069969100088
 20
357.3845030115317
 30
0.0
 10
349.8069969100088
 20
328.2801158906695
 30
0.0
 10
349.8069969100088
 20
328.2801158906695
 30
0.0
 10
349.3516575087669
 20
294.4731079718476
 30
0.0
 10
349.8069969100088
 20
286.649271076707
 30
0.0
 10
349.9244737284571
 20
284.6614585163152
 30
0.0
 10
350.8840856413262
 20
282.436226070291
 30
0.0
 10
352.5462799002107
 20
281.3419878497534
 30
0.0
 10
360.1008050736727
 20
276.3578138126541
 30
0.0
 10
395.1341479507737
 20
256.7541629286243
 30
0.0
 10
395.1341479507737
 20
256.7541629286243
 30
0.0
 10
397.7975659431158
 20
255.214370209058
 30
0.0
 10
398.713138056637
 20
251.8018515665481
 30
0.0
 10
397.1733512807605
 20
249.135957951421
 30
0.0
 10
397.1733512807605
 20
249.135957951421
 30
0.0
 10
391.5992349977805
 20
239.4785417727562
 30
0.0
 10
391.5992349977805
 20
239.4785417727562
 30
0.0
 10
390.0594482219039
 20
236.8126855112932
 30
0.0
 10
386.6469427519169
 20
235.8971098635975
 30
0.0
 10
383.9810594272967
 20
237.4369025831638
 30
0.0
 10
383.9810594272967
 20
237.4369025831638
 30
0.0
 10
330.2743933840447
 20
268.4433942833621
 30
0.0
 10
330.2743933840447
 20
268.4433942833621
 30
0.0
 10
328.6978880986189
 20
269.3540766011301
 30
0.0
 10
327.7333455211919
 20
270.9232293002624
 30
0.0
 10
327.5277143970052
 20
272.6025753069152
 30
0.0
 10
327.5277143970052
 20
272.6025753069152
 30
0.0
 10
327.4909958874541
 20
272.6025753069152
 30
0.0
 10
327.4909958874541
 20
272.6025753069152
 30
0.0
 10
325.6133838823062
 20
287.7606546288225
 30
0.0
 10
310.3231689663917
 20
299.5967979423713
 30
0.0
 10
291.7648946399331
 20
299.5967979423713
 30
0.0
 10
291.7648946399331
 20
299.5967979423713
 30
0.0
 10
269.0792805431165
 20
299.5967979423713
 30
0.0
 10
269.0792805431165
 20
299.5967979423713
 30
0.0
 10
249.2553569195097
 20
299.5943326005745
 30
0.0
 10
233.1597627722467
 20
286.0910952820232
 30
0.0
 10
233.1597627722467
 20
269.4568738832677
 30
0.0
 10
233.1597627722467
 20
269.4568738832677
 30
0.0
 10
233.1597627722467
 20
176.4716894458288
 30
0.0
 10
233.1597627722467
 20
176.4716894458288
 30
0.0
 10
233.1597627722467
 20
156.6476893004146
 30
0.0
 10
249.2553569195097
 20
140.552033022972
 30
0.0
 10
269.0792805431165
 20
140.552033022972
 30
0.0
 10
269.0792805431165
 20
140.552033022972
 30
0.0
 10
291.7648946399331
 20
140.552033022972
 30
0.0
 10
291.7648946399331
 20
140.552033022972
 30
0.0
 10
310.2742358560045
 20
140.552033022972
 30
0.0
 10
325.5301602411273
 20
154.5791181193908
 30
0.0
 10
327.4738879755787
 20
172.5744696648708
 30
0.0
 10
327.4738879755787
 20
172.5744696648708
 30
0.0
 10
327.5007825095327
 20
172.5744696648708
 30
0.0
 10
327.5007825095327
 20
172.5744696648708
 30
0.0
 10
327.5007825095327
 20
172.5744696648708
 30
0.0
 10
327.5007825095327
 20
213.4709040994385
 30
0.0
 10
327.5007825095327
 20
213.4709040994385
 30
0.0
 10
327.5007825095327
 20
216.5480615504421
 30
0.0
 10
330.0002185517969
 20
219.0474698870494
 30
0.0
 10
333.0773267712721
 20
219.0474698870494
 30
0.0
 10
333.0773267712721
 20
219.0474698870494
 30
0.0
 10
344.2304526482694
 20
219.0474698870494
 30
0.0
 10
344.2304526482694
 20
219.0474698870494
 30
0.0
 10
347.3075608677427
 20
219.0474698870494
 30
0.0
 10
349.8069969100088
 20
216.5480615504421
 30
0.0
 10
349.8069969100088
 20
213.4709040994385
 30
0.0
 10
349.8069969100088
 20
213.4709040994385
 30
0.0
 10
349.8069969100088
 20
142.0722524228295
 30
0.0
 10
349.8069969100088
 20
142.0722524228295
 30
0.0
 10
349.8069969100088
 20
117.6509127802201
 30
0.0
 10
326.1788788121976
 20
97.82448464667686
 30
0.0
 10
297.074622712742
 20
97.82448464667686
 30
0.0
  0
ENDBLK
  5
6B
330
68
100
AcDbEntity
  8
0
100
AcDbBlockEnd
  0
BLOCK
  5
6F
330
6D
100
AcDbEntity
  8
0
100
AcDbBlockBegin
  2
block 9
 70
     0
 10
0.0
 20
0.0
 30
0.0
  3
block 9
  1

  0
SPLINE
  5
71
330
6D
100
AcDbEntity
  8
Layer 1
370
     0
100
AcDbSpline
210
0.0
220
0.0
230
1.0
 70
    11
 71
     3
 72
    92
 73
    88
 74
     0
 42
0.0000000001
 43
0.0000000001
 12
1.0
 22
0.0
 32
0.0
 13
1.0
 23
0.0
 33
0.0
 40
0.0
 40
0.0
 40
0.0
 40
0.0
 40
1.0
 40
1.0
 40
1.0
 40
2.0
 40
2.0
 40
2.0
 40
3.0
 40
3.0
 40
3.0
 40
4.0
 40
4.0
 40
4.0
 40
5.0
 40
5.0
 40
5.0
 40
6.0
 40
6.0
 40
6.0
 40
7.0
 40
7.0
 40
7.0
 40
8.0
 40
8.0
 40
8.0
 40
9.0
 40
9.0
 40
9.0
 40
10.0
 40
10.0
 40
10.0
 40
11.0
 40
11.0
 40
11.0
 40
12.0
 40
12.0
 40
12.0
 40
13.0
 40
13.0
 40
13.0
 40
14.0
 40
14.0
 40
14.0
 40
15.0
 40
15.0
 40
15.0
 40
16.0
 40
16.0
 40
16.0
 40
17.0
 40
17.0
 40
17.0
 40
18.0
 40
18.0
 40
18.0
 40
19.0
 40
19.0
 40
19.0
 40
20.0
 40
20.0
 40
20.0
 40
21.0
 40
21.0
 40
21.0
 40
22.0
 40
22.0
 40
22.0
 40
23.0
 40
23.0
 40
23.0
 40
24.0
 40
24.0
 40
24.0
 40
25.0
 40
25.0
 40
25.0
 40
26.0
 40
26.0
 40
26.0
 40
27.0
 40
27.0
 40
27.0
 40
28.0
 40
28.0
 40
28.0
 40
29.0
 40
29.0
 40
29.0
 40
29.0
 10
297.074622712742
 20
695.8807875010525
 30
0.0
 10
297.074622712742
 20
695.8807875010525
 30
0.0
 10
263.7695524703076
 20
695.8807875010525
 30
0.0
 10
263.7695524703076
 20
695.8807875010525
 30
0.0
 10
234.665296370852
 20
695.8807875010525
 30
0.0
 10
211.0371782730417
 20
676.0543593675084
 30
0.0
 10
211.0371782730417
 20
651.633019724899
 30
0.0
 10
211.0371782730417
 20
651.633019724899
 30
0.0
 10
211.0371782730417
 20
465.4251562570589
 30
0.0
 10
211.0371782730417
 20
465.4251562570589
 30
0.0
 10
211.0371782730417
 20
436.3207691361977
 30
0.0
 10
234.665296370852
 20
412.6925785089425
 30
0.0
 10
263.7695524703076
 20
412.6925785089425
 30
0.0
 10
263.7695524703076
 20
412.6925785089425
 30
0.0
 10
297.074622712742
 20
412.6925785089425
 30
0.0
 10
297.074622712742
 20
412.6925785089425
 30
0.0
 10
326.1788788121976
 20
412.6925785089425
 30
0.0
 10
349.8069969100088
 20
436.3207691361977
 30
0.0
 10
349.8069969100088
 20
465.4251562570589
 30
0.0
 10
349.8069969100088
 20
465.4251562570589
 30
0.0
 10
349.3516575087669
 20
499.2321641758808
 30
0.0
 10
349.8069969100088
 20
507.0560010710215
 30
0.0
 10
349.9244737284571
 20
509.0438136314133
 30
0.0
 10
350.8840856413262
 20
511.2690460774384
 30
0.0
 10
352.5462799002107
 20
512.3632842979769
 30
0.0
 10
360.1008050736727
 20
517.3474583350753
 30
0.0
 10
395.1341479507737
 20
536.9511092191042
 30
0.0
 10
395.1341479507737
 20
536.9511092191042
 30
0.0
 10
397.7975659431158
 20
538.4909019386723
 30
0.0
 10
398.713138056637
 20
541.9034205811804
 30
0.0
 10
397.1733512807605
 20
544.5693141963084
 30
0.0
 10
397.1733512807605
 20
544.5693141963084
 30
0.0
 10
391.5992349977805
 20
554.2267303749722
 30
0.0
 10
391.5992349977805
 20
554.2267303749722
 30
0.0
 10
390.0594482219039
 20
556.8925866364361
 30
0.0
 10
386.6469427519169
 20
557.8081622841319
 30
0.0
 10
383.9810594272967
 20
556.2683695645646
 30
0.0
 10
383.9810594272967
 20
556.2683695645646
 30
0.0
 10
330.2743933840447
 20
525.2618778643664
 30
0.0
 10
330.2743933840447
 20
525.2618778643664
 30
0.0
 10
328.6978880986189
 20
524.3511955465983
 30
0.0
 10
327.7333455211919
 20
522.782042847467
 30
0.0
 10
327.5277143970052
 20
521.1026968408132
 30
0.0
 10
327.5277143970052
 20
521.1026968408132
 30
0.0
 10
327.4909958874541
 20
521.1026968408132
 30
0.0
 10
327.4909958874541
 20
521.1026968408132
 30
0.0
 10
325.6133838823062
 20
505.9446175189069
 30
0.0
 10
310.3231689663917
 20
494.1084742053581
 30
0.0
 10
291.7648946399331
 20
494.1084742053581
 30
0.0
 10
291.7648946399331
 20
494.1084742053581
 30
0.0
 10
269.0792805431165
 20
494.1084742053581
 30
0.0
 10
269.0792805431165
 20
494.1084742053581
 30
0.0
 10
249.2553569195097
 20
494.110939547154
 30
0.0
 10
233.1597627722467
 20
507.6141768657062
 30
0.0
 10
233.1597627722467
 20
524.2483982644608
 30
0.0
 10
233.1597627722467
 20
524.2483982644608
 30
0.0
 10
233.1597627722467
 20
617.2335827019015
 30
0.0
 10
233.1597627722467
 20
617.2335827019015
 30
0.0
 10
233.1597627722467
 20
637.0575828473138
 30
0.0
 10
249.2553569195097
 20
653.1532391247565
 30
0.0
 10
269.0792805431165
 20
653.1532391247565
 30
0.0
 10
269.0792805431165
 20
653.1532391247565
 30
0.0
 10
291.7648946399331
 20
653.1532391247565
 30
0.0
 10
291.7648946399331
 20
653.1532391247565
 30
0.0
 10
310.2742358560045
 20
653.1532391247565
 30
0.0
 10
325.5301602411273
 20
639.1261540283376
 30
0.0
 10
327.4738879755787
 20
621.1308024828577
 30
0.0
 10
327.4738879755787
 20
621.1308024828577
 30
0.0
 10
327.5007825095327
 20
621.1308024828577
 30
0.0
 10
327.5007825095327
 20
621.1308024828577
 30
0.0
 10
327.5007825095327
 20
621.1308024828577
 30
0.0
 10
327.5007825095327
 20
580.23436804829
 30
0.0
 10
327.5007825095327
 20
580.23436804829
 30
0.0
 10
327.5007825095327
 20
577.1572105972873
 30
0.0
 10
330.0002185517969
 20
574.6578022606791
 30
0.0
 10
333.0773267712721
 20
574.6578022606791
 30
0.0
 10
333.0773267712721
 20
574.6578022606791
 30
0.0
 10
344.2304526482694
 20
574.6578022606791
 30
0.0
 10
344.2304526482694
 20
574.6578022606791
 30
0.0
 10
347.3075608677427
 20
574.6578022606791
 30
0.0
 10
349.8069969100088
 20
577.1572105972873
 30
0.0
 10
349.8069969100088
 20
580.23436804829
 30
0.0
 10
349.8069969100088
 20
580.23436804829
 30
0.0
 10
349.8069969100088
 20
651.633019724899
 30
0.0
 10
349.8069969100088
 20
651.633019724899
 30
0.0
 10
349.8069969100088
 20
676.0543593675084
 30
0.0
 10
326.1788788121976
 20
695.8807875010525
 30
0.0
 10
297.074622712742
 20
695.8807875010525
 30
0.0
  0
ENDBLK
  5
70
330
6D
100
AcDbEntity
  8
0
100
AcDbBlockEnd
  0
BLOCK
  5
74
330
72
100
AcDbEntity
  8
0
100
AcDbBlockBegin
  2
block 10
 70
     0
 10
0.0
 20
0.0
 30
0.0
  3
block 10
  1

  0
SPLINE
  5
76
330
72
100
AcDbEntity
  8
Layer 1
370
     0
100
AcDbSpline
210
0.0
220
0.0
230
1.0
 70
    11
 71
     3
 72
    98
 73
    94
 74
     0
 42
0.0000000001
 43
0.0000000001
 12
1.0
 22
0.0
 32
0.0
 13
1.0
 23
0.0
 33
0.0
 40
0.0
 40
0.0
 40
0.0
 40
0.0
 40
1.0
 40
1.0
 40
1.0
 40
2.0
 40
2.0
 40
2.0
 40
3.0
 40
3.0
 40
3.0
 40
4.0
 40
4.0
 40
4.0
 40
5.0
 40
5.0
 40
5.0
 40
6.0
 40
6.0
 40
6.0
 40
7.0
 40
7.0
 40
7.0
 40
8.0
 40
8.0
 40
8.0
 40
9.0
 40
9.0
 40
9.0
 40
10.0
 40
10.0
 40
10.0
 40
11.0
 40
11.0
 40
11.0
 40
12.0
 40
12.0
 40
12.0
 40
13.0
 40
13.0
 40
13.0
 40
14.0
 40
14.0
 40
14.0
 40
15.0
 40
15.0
 40
15.0
 40
16.0
 40
16.0
 40
16.0
 40
17.0
 40
17.0
 40
17.0
 40
18.0
 40
18.0
 40
18.0
 40
19.0
 40
19.0
 40
19.0
 40
20.0
 40
20.0
 40
20.0
 40
21.0
 40
21.0
 40
21.0
 40
22.0
 40
22.0
 40
22.0
 40
23.0
 40
23.0
 40
23.0
 40
24.0
 40
24.0
 40
24.0
 40
25.0
 40
25.0
 40
25.0
 40
26.0
 40
26.0
 40
26.0
 40
27.0
 40
27.0
 40
27.0
 40
28.0
 40
28.0
 40
28.0
 40
29.0
 40
29.0
 40
29.0
 40
30.0
 40
30.0
 40
30.0
 40
31.0
 40
31.0
 40
31.0
 40
31.0
 10
510.9404796602576
 20
97.82226210369481
 30
0.0
 10
510.9404796602576
 20
97.82226210369481
 30
0.0
 10
477.6354467713409
 20
97.82226210369481
 30
0.0
 10
477.6354467713409
 20
97.82226210369481
 30
0.0
 10
448.5311533183667
 20
97.82226210369481
 30
0.0
 10
424.9030725740758
 20
117.6511555790348
 30
0.0
 10
424.9030725740758
 20
142.0724578679801
 30
0.0
 10
424.9030725740758
 20
142.0724578679801
 30
0.0
 10
424.9030725740758
 20
328.2803213358202
 30
0.0
 10
424.9030725740758
 20
328.2803213358202
 30
0.0
 10
424.9030725740758
 20
357.3822617917176
 30
0.0
 10
448.5311533183667
 20
381.0128990839366
 30
0.0
 10
477.6354467713409
 20
381.0128990839366
 30
0.0
 10
477.6354467713409
 20
381.0128990839366
 30
0.0
 10
510.9404796602576
 20
381.0128990839366
 30
0.0
 10
510.9404796602576
 20
381.0128990839366
 30
0.0
 10
540.0447731132317
 20
381.0128990839366
 30
0.0
 10
563.6728538575226
 20
357.3822617917176
 30
0.0
 10
563.6728538575226
 20
328.2803213358202
 30
0.0
 10
563.6728538575226
 20
328.2803213358202
 30
0.0
 10
563.3252420061726
 20
256.9697869515658
 30
0.0
 10
563.6703885252427
 20
241.8656089661872
 30
0.0
 10
563.7071443883124
 20
240.2988469015236
 30
0.0
 10
564.4415145793209
 20
238.501986269288
 30
0.0
 10
565.7585623191353
 20
237.6525639597694
 30
0.0
 10
573.3130874925973
 20
232.7908352318445
 30
0.0
 10
609.0000422518078
 20
212.6877658659214
 30
0.0
 10
609.0000422518078
 20
212.6877658659214
 30
0.0
 10
611.66346024415
 20
211.1479731463533
 30
0.0
 10
612.5789950041508
 20
207.7354171501811
 30
0.0
 10
611.0392082282742
 20
205.0695608887181
 30
0.0
 10
611.0392082282742
 20
205.0695608887181
 30
0.0
 10
605.4626639665348
 20
195.4121447100533
 30
0.0
 10
605.4626639665348
 20
195.4121447100533
 30
0.0
 10
603.9253051694177
 20
192.7462884485903
 30
0.0
 10
600.5127996994324
 20
191.8331407890255
 30
0.0
 10
597.846953728329
 20
193.370542874125
 30
0.0
 10
597.846953728329
 20
193.370542874125
 30
0.0
 10
544.1402503315603
 20
224.3794625624541
 30
0.0
 10
544.1402503315603
 20
224.3794625624541
 30
0.0
 10
542.221026505822
 20
225.485952784642
 30
0.0
 10
541.2100161502858
 20
227.5667759673161
 30
0.0
 10
541.3691421428448
 20
229.6377377828103
 30
0.0
 10
541.366676810565
 20
229.6892111312045
 30
0.0
 10
541.366676810565
 20
229.7406097722742
 30
0.0
 10
541.366676810565
 20
229.792008413342
 30
0.0
 10
541.366676810565
 20
229.792008413342
 30
0.0
 10
541.366676810565
 20
272.60281810573
 30
0.0
 10
541.366676810565
 20
272.60281810573
 30
0.0
 10
541.366676810565
 20
272.60281810573
 30
0.0
 10
541.3568901884883
 20
272.60281810573
 30
0.0
 10
541.3568901884883
 20
272.60281810573
 30
0.0
 10
539.4792781833403
 20
287.7608600739713
 30
0.0
 10
524.1890632674258
 20
299.5945753993892
 30
0.0
 10
505.6307515874487
 20
299.5945753993892
 30
0.0
 10
505.6307515874487
 20
299.5945753993892
 30
0.0
 10
482.9451374906312
 20
299.5945753993892
 30
0.0
 10
482.9451374906312
 20
299.5945753993892
 30
0.0
 10
463.118785888264
 20
299.5945753993892
 30
0.0
 10
447.0256383965207
 20
286.0889100927052
 30
0.0
 10
447.0256383965207
 20
269.4546513402856
 30
0.0
 10
447.0256383965207
 20
269.4546513402856
 30
0.0
 10
447.0256383965207
 20
176.4718948909776
 30
0.0
 10
447.0256383965207
 20
176.4718948909776
 30
0.0
 10
447.0256383965207
 20
156.6454667574326
 30
0.0
 10
463.1212512205439
 20
140.5522384681226
 30
0.0
 10
482.9451374906312
 20
140.5522384681226
 30
0.0
 10
482.9451374906312
 20
140.5522384681226
 30
0.0
 10
505.6307515874487
 20
140.5522384681226
 30
0.0
 10
505.6307515874487
 20
140.5522384681226
 30
0.0
 10
524.1400928035182
 20
140.5522384681226
 30
0.0
 10
539.3960171886429
 20
154.5793609182037
 30
0.0
 10
541.3397449230924
 20
172.5746377563573
 30
0.0
 10
541.3397449230924
 20
172.5746377563573
 30
0.0
 10
541.4131819421946
 20
172.5746377563573
 30
0.0
 10
541.4131819421946
 20
172.5746377563573
 30
0.0
 10
541.765687104582
 20
175.3115406859251
 30
0.0
 10
544.1084251330485
 20
177.4290451662237
 30
0.0
 10
546.9432210723044
 20
177.4290451662237
 30
0.0
 10
546.9432210723044
 20
177.4290451662237
 30
0.0
 10
558.0963095957832
 20
177.4290451662237
 30
0.0
 10
558.0963095957832
 20
177.4290451662237
 30
0.0
 10
560.928640202761
 20
177.4290451662237
 30
0.0
 10
563.2713782312276
 20
175.3115406859251
 30
0.0
 10
563.6263487258948
 20
172.5746377563573
 30
0.0
 10
563.6263487258948
 20
172.5746377563573
 30
0.0
 10
563.6728538575226
 20
172.5746377563573
 30
0.0
 10
563.6728538575226
 20
172.5746377563573
 30
0.0
 10
563.6728538575226
 20
172.5746377563573
 30
0.0
 10
563.6728538575226
 20
142.0724578679801
 30
0.0
 10
563.6728538575226
 20
142.0724578679801
 30
0.0
 10
563.6728538575226
 20
117.6511555790348
 30
0.0
 10
540.0447731132317
 20
97.82465273816342
 30
0.0
 10
510.9404796602576
 20
97.82226210369481
 30
0.0
  0
ENDBLK
  5
75
330
72
100
AcDbEntity
  8
0
100
AcDbBlockEnd
  0
BLOCK
  5
79
330
77
100
AcDbEntity
  8
0
100
AcDbBlockBegin
  2
block 11
 70
     0
 10
0.0
 20
0.0
 30
0.0
  3
block 11
  1

  0
SPLINE
  5
7B
330
77
100
AcDbEntity
  8
Layer 1
370
     0
100
AcDbSpline
210
0.0
220
0.0
230
1.0
 70
    11
 71
     3
 72
    98
 73
    94
 74
     0
 42
0.0000000001
 43
0.0000000001
 12
1.0
 22
0.0
 32
0.0
 13
1.0
 23
0.0
 33
0.0
 40
0.0
 40
0.0
 40
0.0
 40
0.0
 40
1.0
 40
1.0
 40
1.0
 40
2.0
 40
2.0
 40
2.0
 40
3.0
 40
3.0
 40
3.0
 40
4.0
 40
4.0
 40
4.0
 40
5.0
 40
5.0
 40
5.0
 40
6.0
 40
6.0
 40
6.0
 40
7.0
 40
7.0
 40
7.0
 40
8.0
 40
8.0
 40
8.0
 40
9.0
 40
9.0
 40
9.0
 40
10.0
 40
10.0
 40
10.0
 40
11.0
 40
11.0
 40
11.0
 40
12.0
 40
12.0
 40
12.0
 40
13.0
 40
13.0
 40
13.0
 40
14.0
 40
14.0
 40
14.0
 40
15.0
 40
15.0
 40
15.0
 40
16.0
 40
16.0
 40
16.0
 40
17.0
 40
17.0
 40
17.0
 40
18.0
 40
18.0
 40
18.0
 40
19.0
 40
19.0
 40
19.0
 40
20.0
 40
20.0
 40
20.0
 40
21.0
 40
21.0
 40
21.0
 40
22.0
 40
22.0
 40
22.0
 40
23.0
 40
23.0
 40
23.0
 40
24.0
 40
24.0
 40
24.0
 40
25.0
 40
25.0
 40
25.0
 40
26.0
 40
26.0
 40
26.0
 40
27.0
 40
27.0
 40
27.0
 40
28.0
 40
28.0
 40
28.0
 40
29.0
 40
29.0
 40
29.0
 40
30.0
 40
30.0
 40
30.0
 40
31.0
 40
31.0
 40
31.0
 40
31.0
 10
508.1120524960534
 20
695.8807875010525
 30
0.0
 10
508.1120524960534
 20
695.8807875010525
 30
0.0
 10
474.8070196071385
 20
695.8807875010525
 30
0.0
 10
474.8070196071385
 20
695.8807875010525
 30
0.0
 10
445.7027261541625
 20
695.8807875010525
 30
0.0
 10
422.0746454098735
 20
676.0518940257125
 30
0.0
 10
422.0746454098735
 20
651.6305917367672
 30
0.0
 10
422.0746454098735
 20
651.6305917367672
 30
0.0
 10
422.0746454098735
 20
465.4227282689271
 30
0.0
 10
422.0746454098735
 20
465.4227282689271
 30
0.0
 10
422.0746454098735
 20
436.3207878130297
 30
0.0
 10
445.7027261541625
 20
412.6901505208107
 30
0.0
 10
474.8070196071385
 20
412.6901505208107
 30
0.0
 10
474.8070196071385
 20
412.6901505208107
 30
0.0
 10
508.1120524960534
 20
412.6901505208107
 30
0.0
 10
508.1120524960534
 20
412.6901505208107
 30
0.0
 10
537.2163459490293
 20
412.6901505208107
 30
0.0
 10
560.8444266933202
 20
436.3207878130297
 30
0.0
 10
560.8444266933202
 20
465.4227282689271
 30
0.0
 10
560.8444266933202
 20
465.4227282689271
 30
0.0
 10
560.4968148419703
 20
536.7332626531806
 30
0.0
 10
560.8419613610404
 20
551.8374406385592
 30
0.0
 10
560.87871722411
 20
553.4042027032228
 30
0.0
 10
561.6130874151186
 20
555.2010633354594
 30
0.0
 10
562.9301351549329
 20
556.050485644977
 30
0.0
 10
570.4846603283931
 20
560.9122143729028
 30
0.0
 10
606.1716150876055
 20
581.0152837388259
 30
0.0
 10
606.1716150876055
 20
581.0152837388259
 30
0.0
 10
608.8350330799476
 20
582.5550764583932
 30
0.0
 10
609.7505678399484
 20
585.9676324545653
 30
0.0
 10
608.2107810640719
 20
588.6334887160292
 30
0.0
 10
608.2107810640719
 20
588.6334887160292
 30
0.0
 10
602.6342368023325
 20
598.2909048946931
 30
0.0
 10
602.6342368023325
 20
598.2909048946931
 30
0.0
 10
601.0968780052153
 20
600.956761156157
 30
0.0
 10
597.6843725352282
 20
601.8699088157209
 30
0.0
 10
595.0185265641267
 20
600.3325067306223
 30
0.0
 10
595.0185265641267
 20
600.3325067306223
 30
0.0
 10
541.3118231673561
 20
569.3235870422923
 30
0.0
 10
541.3118231673561
 20
569.3235870422923
 30
0.0
 10
539.3925993416196
 20
568.2170968201044
 30
0.0
 10
538.3815889860834
 20
566.1362736374294
 30
0.0
 10
538.5407149786424
 20
564.065311821937
 30
0.0
 10
538.5382496463626
 20
564.0138384735419
 30
0.0
 10
538.5382496463626
 20
563.9624398324731
 30
0.0
 10
538.5382496463626
 20
563.9110411914044
 30
0.0
 10
538.5382496463626
 20
563.9110411914044
 30
0.0
 10
538.5382496463626
 20
521.1002314990174
 30
0.0
 10
538.5382496463626
 20
521.1002314990174
 30
0.0
 10
538.5382496463626
 20
521.1002314990174
 30
0.0
 10
538.5284630242859
 20
521.1002314990174
 30
0.0
 10
538.5284630242859
 20
521.1002314990174
 30
0.0
 10
536.6508510191379
 20
505.9421895307751
 30
0.0
 10
521.3606361032234
 20
494.1084742053581
 30
0.0
 10
502.8023244232445
 20
494.1084742053581
 30
0.0
 10
502.8023244232445
 20
494.1084742053581
 30
0.0
 10
480.116710326427
 20
494.1084742053581
 30
0.0
 10
480.116710326427
 20
494.1084742053581
 30
0.0
 10
460.2903587240617
 20
494.1084742053581
 30
0.0
 10
444.1972112323165
 20
507.6141395120421
 30
0.0
 10
444.1972112323165
 20
524.2483982644608
 30
0.0
 10
444.1972112323165
 20
524.2483982644608
 30
0.0
 10
444.1972112323165
 20
617.2311547137688
 30
0.0
 10
444.1972112323165
 20
617.2311547137688
 30
0.0
 10
444.1972112323165
 20
637.0575828473138
 30
0.0
 10
460.2928240563415
 20
653.1508111366247
 30
0.0
 10
480.116710326427
 20
653.1508111366247
 30
0.0
 10
480.116710326427
 20
653.1508111366247
 30
0.0
 10
502.8023244232445
 20
653.1508111366247
 30
0.0
 10
502.8023244232445
 20
653.1508111366247
 30
0.0
 10
521.3116656393158
 20
653.1508111366247
 30
0.0
 10
536.5675900244387
 20
639.1236886865427
 30
0.0
 10
538.5113177588901
 20
621.1284118483891
 30
0.0
 10
538.5113177588901
 20
621.1284118483891
 30
0.0
 10
538.5847547779904
 20
621.1284118483891
 30
0.0
 10
538.5847547779904
 20
621.1284118483891
 30
0.0
 10
538.9372599403796
 20
618.3915089188204
 30
0.0
 10
541.2799979688443
 20
616.2740044385228
 30
0.0
 10
544.114793908102
 20
616.2740044385228
 30
0.0
 10
544.114793908102
 20
616.2740044385228
 30
0.0
 10
555.2678824315808
 20
616.2740044385228
 30
0.0
 10
555.2678824315808
 20
616.2740044385228
 30
0.0
 10
558.1002130385586
 20
616.2740044385228
 30
0.0
 10
560.4429510670252
 20
618.3915089188204
 30
0.0
 10
560.7979215616924
 20
621.1284118483891
 30
0.0
 10
560.7979215616924
 20
621.1284118483891
 30
0.0
 10
560.8444266933202
 20
621.1284118483891
 30
0.0
 10
560.8444266933202
 20
621.1284118483891
 30
0.0
 10
560.8444266933202
 20
621.1284118483891
 30
0.0
 10
560.8444266933202
 20
651.6305917367672
 30
0.0
 10
560.8444266933202
 20
651.6305917367672
 30
0.0
 10
560.8444266933202
 20
676.0518940257125
 30
0.0
 10
537.2163459490293
 20
695.8783968665839
 30
0.0
 10
508.1120524960534
 20
695.8807875010525
 30
0.0
  0
ENDBLK
  5
7A
330
77
100
AcDbEntity
  8
0
100
AcDbBlockEnd
  0
BLOCK
  5
7E
330
7C
100
AcDbEntity
  8
0
100
AcDbBlockBegin
  2
block 12
 70
     0
 10
0.0
 20
0.0
 30
0.0
  3
block 12
  1

  0
SPLINE
  5
80
330
7C
100
AcDbEntity
  8
Layer 1
370
     0
100
AcDbSpline
210
0.0
220
0.0
230
1.0
 70
    11
 71
     3
 72
    92
 73
    88
 74
     0
 42
0.0000000001
 43
0.0000000001
 12
1.0
 22
0.0
 32
0.0
 13
1.0
 23
0.0
 33
0.0
 40
0.0
 40
0.0
 40
0.0
 40
0.0
 40
1.0
 40
1.0
 40
1.0
 40
2.0
 40
2.0
 40
2.0
 40
3.0
 40
3.0
 40
3.0
 40
4.0
 40
4.0
 40
4.0
 40
5.0
 40
5.0
 40
5.0
 40
6.0
 40
6.0
 40
6.0
 40
7.0
 40
7.0
 40
7.0
 40
8.0
 40
8.0
 40
8.0
 40
9.0
 40
9.0
 40
9.0
 40
10.0
 40
10.0
 40
10.0
 40
11.0
 40
11.0
 40
11.0
 40
12.0
 40
12.0
 40
12.0
 40
13.0
 40
13.0
 40
13.0
 40
14.0
 40
14.0
 40
14.0
 40
15.0
 40
15.0
 40
15.0
 40
16.0
 40
16.0
 40
16.0
 40
17.0
 40
17.0
 40
17.0
 40
18.0
 40
18.0
 40
18.0
 40
19.0
 40
19.0
 40
19.0
 40
20.0
 40
20.0
 40
20.0
 40
21.0
 40
21.0
 40
21.0
 40
22.0
 40
22.0
 40
22.0
 40
23.0
 40
23.0
 40
23.0
 40
24.0
 40
24.0
 40
24.0
 40
25.0
 40
25.0
 40
25.0
 40
26.0
 40
26.0
 40
26.0
 40
27.0
 40
27.0
 40
27.0
 40
28.0
 40
28.0
 40
28.0
 40
29.0
 40
29.0
 40
29.0
 40
29.0
 10
86.03838824205104
 20
695.8807875010525
 30
0.0
 10
86.03838824205104
 20
695.8807875010525
 30
0.0
 10
52.7333179996167
 20
695.8807875010525
 30
0.0
 10
52.7333179996167
 20
695.8807875010525
 30
0.0
 10
23.6290619001602
 20
695.8807875010525
 30
0.0
 10
0.0009438023507755
 20
676.0543593675084
 30
0.0
 10
0.0009438023507755
 20
651.633019724899
 30
0.0
 10
0.0009438023507755
 20
651.633019724899
 30
0.0
 10
0.0009438023507755
 20
465.4251562570589
 30
0.0
 10
0.0009438023507755
 20
465.4251562570589
 30
0.0
 10
0.0009438023507755
 20
436.3207691361977
 30
0.0
 10
23.6290619001602
 20
412.6925785089425
 30
0.0
 10
52.7333179996167
 20
412.6925785089425
 30
0.0
 10
52.7333179996167
 20
412.6925785089425
 30
0.0
 10
86.03838824205104
 20
412.6925785089425
 30
0.0
 10
86.03838824205104
 20
412.6925785089425
 30
0.0
 10
115.1426443415066
 20
412.6925785089425
 30
0.0
 10
138.770762439317
 20
436.3207691361977
 30
0.0
 10
138.770762439317
 20
465.4251562570589
 30
0.0
 10
138.770762439317
 20
465.4251562570589
 30
0.0
 10
138.315423038076
 20
499.2321641758808
 30
0.0
 10
138.770762439317
 20
507.0560010710215
 30
0.0
 10
138.8882392577671
 20
509.0438136314133
 30
0.0
 10
139.8478511706353
 20
511.2690460774384
 30
0.0
 10
141.5100454295198
 20
512.3632842979769
 30
0.0
 10
149.0645706029809
 20
517.3474583350753
 30
0.0
 10
184.0979134800828
 20
536.9511092191042
 30
0.0
 10
184.0979134800828
 20
536.9511092191042
 30
0.0
 10
186.7613314724258
 20
538.4909019386723
 30
0.0
 10
187.6769035859452
 20
541.9034205811804
 30
0.0
 10
186.1371168100686
 20
544.5693141963084
 30
0.0
 10
186.1371168100686
 20
544.5693141963084
 30
0.0
 10
180.5630005270887
 20
554.2267303749722
 30
0.0
 10
180.5630005270887
 20
554.2267303749722
 30
0.0
 10
179.0232137512121
 20
556.8925866364361
 30
0.0
 10
175.6107082812259
 20
557.8081622841319
 30
0.0
 10
172.9448249566049
 20
556.2683695645646
 30
0.0
 10
172.9448249566049
 20
556.2683695645646
 30
0.0
 10
119.2381589133538
 20
525.2618778643664
 30
0.0
 10
119.2381589133538
 20
525.2618778643664
 30
0.0
 10
117.6616536279271
 20
524.3511955465983
 30
0.0
 10
116.6971110505001
 20
522.782042847467
 30
0.0
 10
116.4914799263142
 20
521.1026968408132
 30
0.0
 10
116.4914799263142
 20
521.1026968408132
 30
0.0
 10
116.4547614167632
 20
521.1026968408132
 30
0.0
 10
116.4547614167632
 20
521.1026968408132
 30
0.0
 10
114.5771494116152
 20
505.9446175189069
 30
0.0
 10
99.28693449570073
 20
494.1084742053581
 30
0.0
 10
80.72866016924218
 20
494.1084742053581
 30
0.0
 10
80.72866016924218
 20
494.1084742053581
 30
0.0
 10
58.04304607242557
 20
494.1084742053581
 30
0.0
 10
58.04304607242557
 20
494.1084742053581
 30
0.0
 10
38.21912244881878
 20
494.110939547154
 30
0.0
 10
22.12352830155487
 20
507.6141768657062
 30
0.0
 10
22.12352830155487
 20
524.2483982644608
 30
0.0
 10
22.12352830155487
 20
524.2483982644608
 30
0.0
 10
22.12352830155487
 20
617.2335827019015
 30
0.0
 10
22.12352830155487
 20
617.2335827019015
 30
0.0
 10
22.12352830155487
 20
637.0575828473138
 30
0.0
 10
38.21912244881878
 20
653.1532391247565
 30
0.0
 10
58.04304607242557
 20
653.1532391247565
 30
0.0
 10
58.04304607242557
 20
653.1532391247565
 30
0.0
 10
80.72866016924218
 20
653.1532391247565
 30
0.0
 10
80.72866016924218
 20
653.1532391247565
 30
0.0
 10
99.23800138531351
 20
653.1532391247565
 30
0.0
 10
114.4939257704373
 20
639.1261540283376
 30
0.0
 10
116.4376535048877
 20
621.1308024828577
 30
0.0
 10
116.4376535048877
 20
621.1308024828577
 30
0.0
 10
116.4645480388408
 20
621.1308024828577
 30
0.0
 10
116.4645480388408
 20
621.1308024828577
 30
0.0
 10
116.4645480388408
 20
621.1308024828577
 30
0.0
 10
116.4645480388408
 20
580.23436804829
 30
0.0
 10
116.4645480388408
 20
580.23436804829
 30
0.0
 10
116.4645480388408
 20
577.1572105972873
 30
0.0
 10
118.963984081106
 20
574.6578022606791
 30
0.0
 10
122.0410923005802
 20
574.6578022606791
 30
0.0
 10
122.0410923005802
 20
574.6578022606791
 30
0.0
 10
133.1942181775776
 20
574.6578022606791
 30
0.0
 10
133.1942181775776
 20
574.6578022606791
 30
0.0
 10
136.2713263970518
 20
574.6578022606791
 30
0.0
 10
138.770762439317
 20
577.1572105972873
 30
0.0
 10
138.770762439317
 20
580.23436804829
 30
0.0
 10
138.770762439317
 20
580.23436804829
 30
0.0
 10
138.770762439317
 20
651.633019724899
 30
0.0
 10
138.770762439317
 20
651.633019724899
 30
0.0
 10
138.770762439317
 20
676.0543593675084
 30
0.0
 10
115.1426443415066
 20
695.8807875010525
 30
0.0
 10
86.03838824205104
 20
695.8807875010525
 30
0.0
  0
ENDBLK
  5
7F
330
7C
100
AcDbEntity
  8
0
100
AcDbBlockEnd
  0
ENDSEC
  0
SECTION
  2
ENTITIES
  0
INSERT
  5
42
330
1F
100
AcDbEntity
  8
Layer 1
100
AcDbBlockReference
  2
block 2
 10
0.0
 20
0.0
 30
0.0
  0
ENDSEC
  0
SECTION
  2
OBJECTS
  0
DICTIONARY
  5
C
330
0
100
AcDbDictionary
281
     1
  3
ACAD_GROUP
350
D
  3
ACAD_LAYOUT
350
1A
  3
ACAD_MATERIAL
350
3B
  3
ACAD_MLEADERSTYLE
350
82
  3
ACAD_MLINESTYLE
350
17
  3
ACAD_PLOTSETTINGS
350
19
  3
ACAD_PLOTSTYLENAME
350
E
  3
ACAD_TABLESTYLE
350
81
  3
ACAD_VISUALSTYLE
350
2A
  0
SUN
  5
3F
330
29
100
AcDbSun
 90
        1
290
     0
 63
     7
421
 16777215
 40
1.0
291
     1
 91
  2455826
 92
 54000000
292
     0
 70
     2
 71
   256
280
     1
  0
DICTIONARY
  5
D
102
{ACAD_REACTORS
330
C
102
}
330
C
100
AcDbDictionary
281
     1
  0
DICTIONARY
  5
1A
102
{ACAD_REACTORS
330
C
102
}
330
C
100
AcDbDictionary
281
     1
  3
Layout1
350
1E
  3
Layout2
350
26
  3
Model
350
22
  0
DICTIONARY
  5
3B
102
{ACAD_REACTORS
330
C
102
}
330
C
100
AcDbDictionary
281
     1
  3
ByBlock
350
3D
  3
ByLayer
350
3C
  3
Global
350
3E
  0
DICTIONARY
  5
82
102
{ACAD_REACTORS
330
C
102
}
330
C
100
AcDbDictionary
281
     1
  0
DICTIONARY
  5
17
102
{ACAD_REACTORS
330
C
102
}
330
C
100
AcDbDictionary
281
     1
  3
Standard
350
18
  0
DICTIONARY
  5
19
102
{ACAD_REACTORS
330
C
102
}
330
C
100
AcDbDictionary
281
     1
  0
ACDBDICTIONARYWDFLT
  5
E
102
{ACAD_REACTORS
330
C
102
}
330
C
100
AcDbDictionary
281
     1
  3
Normal
350
F
100
AcDbDictionaryWithDefault
340
F
  0
DICTIONARY
  5
81
102
{ACAD_REACTORS
330
C
102
}
330
C
100
AcDbDictionary
281
     1
  0
DICTIONARY
  5
2A
102
{ACAD_REACTORS
330
C
102
}
330
C
100
AcDbDictionary
281
     1
  3
2dWireframe
350
2F
  3
3D Hidden
350
31
  3
3dWireframe
350
30
  3
Basic
350
32
  3
Brighten
350
36
  3
ColorChange
350
3A
  3
Conceptual
350
34
  3
Dim
350
35
  3
Facepattern
350
39
  3
Flat
350
2B
  3
FlatWithEdges
350
2C
  3
Gouraud
350
2D
  3
GouraudWithEdges
350
2E
  3
Linepattern
350
38
  3
Realistic
350
33
  3
Thicken
350
37
  0
LAYOUT
  5
1E
102
{ACAD_REACTORS
330
1A
102
}
330
1A
100
AcDbPlotSettings
  1

  2
none_device
  4

  6

 40
0.0
 41
0.0
 42
0.0
 43
0.0
 44
0.0
 45
0.0
 46
0.0
 47
0.0
 48
0.0
 49
0.0
140
0.0
141
0.0
142
1.0
143
1.0
 70
   688
 72
     0
 73
     0
 74
     5
  7

 75
    16
 76
     0
 77
     2
 78
   300
147
1.0
148
0.0
149
0.0
100
AcDbLayout
  1
Layout1
 70
     1
 71
     1
 10
0.0
 20
0.0
 11
12.0
 21
9.0
 12
0.0
 22
0.0
 32
0.0
 14
1.000000000000000E+20
 24
1.000000000000000E+20
 34
1.000000000000000E+20
 15
-1.000000000000000E+20
 25
-1.000000000000000E+20
 35
-1.000000000000000E+20
146
0.0
 13
0.0
 23
0.0
 33
0.0
 16
1.0
 26
0.0
 36
0.0
 17
0.0
 27
1.0
 37
0.0
 76
     0
330
1B
  0
LAYOUT
  5
26
102
{ACAD_REACTORS
330
1A
102
}
330
1A
100
AcDbPlotSettings
  1

  2
none_device
  4

  6

 40
0.0
 41
0.0
 42
0.0
 43
0.0
 44
0.0
 45
0.0
 46
0.0
 47
0.0
 48
0.0
 49
0.0
140
0.0
141
0.0
142
1.0
143
1.0
 70
   688
 72
     0
 73
     0
 74
     5
  7

 75
    16
 76
     0
 77
     2
 78
   300
147
1.0
148
0.0
149
0.0
100
AcDbLayout
  1
Layout2
 70
     1
 71
     2
 10
0.0
 20
0.0
 11
0.0
 21
0.0
 12
0.0
 22
0.0
 32
0.0
 14
0.0
 24
0.0
 34
0.0
 15
0.0
 25
0.0
 35
0.0
146
0.0
 13
0.0
 23
0.0
 33
0.0
 16
1.0
 26
0.0
 36
0.0
 17
0.0
 27
1.0
 37
0.0
 76
     0
330
23
  0
LAYOUT
  5
22
102
{ACAD_REACTORS
330
1A
102
}
330
1A
100
AcDbPlotSettings
  1

  2
none_device
  4

  6

 40
0.0
 41
0.0
 42
0.0
 43
0.0
 44
0.0
 45
0.0
 46
0.0
 47
0.0
 48
0.0
 49
0.0
140
0.0
141
0.0
142
1.0
143
1.0
 70
  1712
 72
     0
 73
     0
 74
     0
  7

 75
     0
 76
     0
 77
     2
 78
   300
147
1.0
148
0.0
149
0.0
100
AcDbLayout
  1
Model
 70
     1
 71
     0
 10
0.0
 20
0.0
 11
12.0
 21
9.0
 12
0.0
 22
0.0
 32
0.0
 14
1.000000000000000E+20
 24
1.000000000000000E+20
 34
1.000000000000000E+20
 15
-1.000000000000000E+20
 25
-1.000000000000000E+20
 35
-1.000000000000000E+20
146
0.0
 13
0.0
 23
0.0
 33
0.0
 16
1.0
 26
0.0
 36
0.0
 17
0.0
 27
1.0
 37
0.0
 76
     0
330
1F
331
29
  0
MATERIAL
  5
3D
102
{ACAD_REACTORS
330
3B
102
}
330
3B
100
AcDbMaterial
  1
ByBlock
 72
     1
 94
      127
  0
MATERIAL
  5
3C
102
{ACAD_REACTORS
330
3B
102
}
330
3B
100
AcDbMaterial
  1
ByLayer
 72
     1
 94
      127
  0
MATERIAL
  5
3E
102
{ACAD_REACTORS
330
3B
102
}
330
3B
100
AcDbMaterial
  1
Global
 72
     1
 94
      127
  0
MLINESTYLE
  5
18
102
{ACAD_REACTORS
330
17
102
}
330
17
100
AcDbMlineStyle
  2
Standard
 70
     0
  3

 62
   256
 51
90.0
 52
90.0
 71
     2
 49
0.5
 62
   256
  6
BYLAYER
 49
-0.5
 62
   256
  6
BYLAYER
  0
ACDBPLACEHOLDER
  5
F
102
{ACAD_REACTORS
330
E
102
}
330
E
  0
VISUALSTYLE
  5
2F
102
{ACAD_REACTORS
330
2A
102
}
330
2A
100
AcDbVisualStyle
  2
2dWireframe
 70
     4
177
     2
291
     0
 71
     0
176
     1
 72
     2
176
     1
 73
     0
176
     1
 90
        0
176
     1
 40
-0.6
176
     1
 41
-30.0
176
     1
 62
     5
 63
     7
421
 16777215
176
     1
 74
     1
176
     1
 91
        4
176
     1
 64
     7
176
     1
 65
   257
176
     1
 75
     1
176
     1
175
     1
176
     1
 42
1.0
176
     1
 92
        0
176
     1
 66
   257
176
     1
 43
1.0
176
     1
 76
     1
176
     1
 77
     6
176
     1
 78
     2
176
     1
 67
     7
176
     1
 79
     5
176
     1
170
     0
176
     1
171
     0
176
     1
290
     0
176
     1
 93
        1
176
     1
 44
0.0
176
     1
173
     0
176
     1
  0
VISUALSTYLE
  5
31
102
{ACAD_REACTORS
330
2A
102
}
330
2A
100
AcDbVisualStyle
  2
3D Hidden
 70
     6
177
     2
291
     0
 71
     1
176
     1
 72
     2
176
     1
 73
     2
176
     1
 90
        0
176
     1
 40
-0.6
176
     1
 41
-30.0
176
     1
 62
     5
 63
     7
421
 16777215
176
     1
 74
     2
176
     1
 91
        2
176
     1
 64
     7
176
     1
 65
   257
176
     1
 75
     2
176
     1
175
     1
176
     1
 42
40.0
176
     1
 92
        0
176
     1
 66
   257
176
     1
 43
1.0
176
     1
 76
     1
176
     1
 77
     6
176
     1
 78
     2
176
     1
 67
     7
176
     1
 79
     3
176
     1
170
     0
176
     1
171
     0
176
     1
290
     0
176
     1
 93
        1
176
     1
 44
0.0
176
     1
173
     0
176
     1
  0
VISUALSTYLE
  5
30
102
{ACAD_REACTORS
330
2A
102
}
330
2A
100
AcDbVisualStyle
  2
3dWireframe
 70
     5
177
     2
291
     0
 71
     0
176
     1
 72
     2
176
     1
 73
     0
176
     1
 90
        0
176
     1
 40
-0.6
176
     1
 41
-30.0
176
     1
 62
     5
 63
     7
421
 16777215
176
     1
 74
     1
176
     1
 91
        4
176
     1
 64
     7
176
     1
 65
   257
176
     1
 75
     1
176
     1
175
     1
176
     1
 42
1.0
176
     1
 92
        0
176
     1
 66
   257
176
     1
 43
1.0
176
     1
 76
     1
176
     1
 77
     6
176
     1
 78
     2
176
     1
 67
     7
176
     1
 79
     5
176
     1
170
     0
176
     1
171
     0
176
     1
290
     0
176
     1
 93
        1
176
     1
 44
0.0
176
     1
173
     0
176
     1
  0
VISUALSTYLE
  5
32
102
{ACAD_REACTORS
330
2A
102
}
330
2A
100
AcDbVisualStyle
  2
Basic
 70
     7
177
     2
291
     1
 71
     1
176
     1
 72
     0
176
     1
 73
     1
176
     1
 90
        0
176
     1
 40
-0.6
176
     1
 41
-30.0
176
     1
 62
     5
 63
     7
421
 16777215
176
     1
 74
     0
176
     1
 91
        4
176
     1
 64
     7
176
     1
 65
   257
176
     1
 75
     1
176
     1
175
     1
176
     1
 42
1.0
176
     1
 92
        8
176
     1
 66
     7
176
     1
 43
1.0
176
     1
 76
     1
176
     1
 77
     6
176
     1
 78
     2
176
     1
 67
     7
176
     1
 79
     5
176
     1
170
     0
176
     1
171
     0
176
     1
290
     0
176
     1
 93
        1
176
     1
 44
0.0
176
     1
173
     0
176
     1
  0
VISUALSTYLE
  5
36
102
{ACAD_REACTORS
330
2A
102
}
330
2A
100
AcDbVisualStyle
  2
Brighten
 70
    12
177
     2
291
     1
 71
     2
176
     1
 72
     2
176
     1
 73
     0
176
     1
 90
        0
176
     1
 40
-0.6
176
     1
 41
-30.0
176
     1
 62
     5
 63
     7
421
 16777215
176
     1
 74
     1
176
     1
 91
        4
176
     1
 64
     7
176
     1
 65
   257
176
     1
 75
     1
176
     1
175
     1
176
     1
 42
1.0
176
     1
 92
        8
176
     1
 66
     7
176
     1
 43
1.0
176
     1
 76
     1
176
     1
 77
     6
176
     1
 78
     2
176
     1
 67
     7
176
     1
 79
     5
176
     1
170
     0
176
     1
171
     0
176
     1
290
     0
176
     1
 93
        1
176
     1
 44
50.0
176
     1
173
     0
176
     1
  0
VISUALSTYLE
  5
3A
102
{ACAD_REACTORS
330
2A
102
}
330
2A
100
AcDbVisualStyle
  2
ColorChange
 70
    16
177
     2
291
     1
 71
     2
176
     1
 72
     2
176
     1
 73
     3
176
     1
 90
        0
176
     1
 40
-0.6
176
     1
 41
-30.0
176
     1
 62
     5
 63
     8
421
  8421504
176
     1
 74
     1
176
     1
 91
        4
176
     1
 64
     7
176
     1
 65
   257
176
     1
 75
     1
176
     1
175
     1
176
     1
 42
1.0
176
     1
 92
        8
176
     1
 66
     8
424
  8421504
176
     1
 43
1.0
176
     1
 76
     1
176
     1
 77
     6
176
     1
 78
     2
176
     1
 67
     7
176
     1
 79
     5
176
     1
170
     0
176
     1
171
     0
176
     1
290
     0
176
     1
 93
        1
176
     1
 44
0.0
176
     1
173
     0
176
     1
  0
VISUALSTYLE
  5
34
102
{ACAD_REACTORS
330
2A
102
}
330
2A
100
AcDbVisualStyle
  2
Conceptual
 70
     9
177
     2
291
     0
 71
     3
176
     1
 72
     2
176
     1
 73
     0
176
     1
 90
        0
176
     1
 40
-0.6
176
     1
 41
-30.0
176
     1
 62
     5
 63
     7
421
 16777215
176
     1
 74
     2
176
     1
 91
        2
176
     1
 64
     7
176
     1
 65
   257
176
     1
 75
     1
176
     1
175
     1
176
     1
 42
40.0
176
     1
 92
        8
176
     1
 66
     7
176
     1
 43
1.0
176
     1
 76
     1
176
     1
 77
     6
176
     1
 78
     2
176
     1
 67
     7
176
     1
 79
     3
176
     1
170
     0
176
     1
171
     0
176
     1
290
     0
176
     1
 93
        1
176
     1
 44
0.0
176
     1
173
     0
176
     1
  0
VISUALSTYLE
  5
35
102
{ACAD_REACTORS
330
2A
102
}
330
2A
100
AcDbVisualStyle
  2
Dim
 70
    11
177
     2
291
     1
 71
     2
176
     1
 72
     2
176
     1
 73
     0
176
     1
 90
        0
176
     1
 40
-0.6
176
     1
 41
-30.0
176
     1
 62
     5
 63
     7
421
 16777215
176
     1
 74
     1
176
     1
 91
        4
176
     1
 64
     7
176
     1
 65
   257
176
     1
 75
     1
176
     1
175
     1
176
     1
 42
1.0
176
     1
 92
        8
176
     1
 66
     7
176
     1
 43
1.0
176
     1
 76
     1
176
     1
 77
     6
176
     1
 78
     2
176
     1
 67
     7
176
     1
 79
     5
176
     1
170
     0
176
     1
171
     0
176
     1
290
     0
176
     1
 93
        1
176
     1
 44
-50.0
176
     1
173
     0
176
     1
  0
VISUALSTYLE
  5
39
102
{ACAD_REACTORS
330
2A
102
}
330
2A
100
AcDbVisualStyle
  2
Facepattern
 70
    15
177
     2
291
     1
 71
     2
176
     1
 72
     2
176
     1
 73
     0
176
     1
 90
        0
176
     1
 40
-0.6
176
     1
 41
-30.0
176
     1
 62
     5
 63
     7
421
 16777215
176
     1
 74
     1
176
     1
 91
        4
176
     1
 64
     7
176
     1
 65
   257
176
     1
 75
     1
176
     1
175
     1
176
     1
 42
1.0
176
     1
 92
        8
176
     1
 66
     7
176
     1
 43
1.0
176
     1
 76
     1
176
     1
 77
     6
176
     1
 78
     2
176
     1
 67
     7
176
     1
 79
     5
176
     1
170
     0
176
     1
171
     0
176
     1
290
     0
176
     1
 93
        1
176
     1
 44
0.0
176
     1
173
     0
176
     1
  0
VISUALSTYLE
  5
2B
102
{ACAD_REACTORS
330
2A
102
}
330
2A
100
AcDbVisualStyle
  2
Flat
 70
     0
177
     2
291
     1
 71
     2
176
     1
 72
     1
176
     1
 73
     1
176
     1
 90
        2
176
     1
 40
-0.6
176
     1
 41
30.0
176
     1
 62
     5
 63
     7
421
 16777215
176
     1
 74
     0
176
     1
 91
        4
176
     1
 64
     7
176
     1
 65
   257
176
     1
 75
     1
176
     1
175
     1
176
     1
 42
1.0
176
     1
 92
        8
176
     1
 66
     7
176
     1
 43
1.0
176
     1
 76
     1
176
     1
 77
     6
176
     1
 78
     2
176
     1
 67
     7
176
     1
 79
     5
176
     1
170
     0
176
     1
171
     0
176
     1
290
     0
176
     1
 93
       13
176
     1
 44
0.0
176
     1
173
     0
176
     1
  0
VISUALSTYLE
  5
2C
102
{ACAD_REACTORS
330
2A
102
}
330
2A
100
AcDbVisualStyle
  2
FlatWithEdges
 70
     1
177
     2
291
     1
 71
     2
176
     1
 72
     1
176
     1
 73
     1
176
     1
 90
        2
176
     1
 40
-0.6
176
     1
 41
30.0
176
     1
 62
     5
 63
     7
421
 16777215
176
     1
 74
     1
176
     1
 91
        4
176
     1
 64
     7
176
     1
 65
   257
176
     1
 75
     1
176
     1
175
     1
176
     1
 42
1.0
176
     1
 92
        0
176
     1
 66
   257
176
     1
 43
1.0
176
     1
 76
     1
176
     1
 77
     6
176
     1
 78
     2
176
     1
 67
     7
176
     1
 79
     5
176
     1
170
     0
176
     1
171
     0
176
     1
290
     0
176
     1
 93
       13
176
     1
 44
0.0
176
     1
173
     0
176
     1
  0
VISUALSTYLE
  5
2D
102
{ACAD_REACTORS
330
2A
102
}
330
2A
100
AcDbVisualStyle
  2
Gouraud
 70
     2
177
     2
291
     1
 71
     2
176
     1
 72
     2
176
     1
 73
     1
176
     1
 90
        2
176
     1
 40
-0.6
176
     1
 41
30.0
176
     1
 62
     5
 63
     7
421
 16777215
176
     1
 74
     0
176
     1
 91
        4
176
     1
 64
     7
176
     1
 65
   257
176
     1
 75
     1
176
     1
175
     1
176
     1
 42
1.0
176
     1
 92
        0
176
     1
 66
     7
176
     1
 43
1.0
176
     1
 76
     1
176
     1
 77
     6
176
     1
 78
     2
176
     1
 67
     7
176
     1
 79
     5
176
     1
170
     0
176
     1
171
     0
176
     1
290
     0
176
     1
 93
       13
176
     1
 44
0.0
176
     1
173
     0
176
     1
  0
VISUALSTYLE
  5
2E
102
{ACAD_REACTORS
330
2A
102
}
330
2A
100
AcDbVisualStyle
  2
GouraudWithEdges
 70
     3
177
     2
291
     1
 71
     2
176
     1
 72
     2
176
     1
 73
     1
176
     1
 90
        2
176
     1
 40
-0.6
176
     1
 41
30.0
176
     1
 62
     5
 63
     7
421
 16777215
176
     1
 74
     1
176
     1
 91
        4
176
     1
 64
     7
176
     1
 65
   257
176
     1
 75
     1
176
     1
175
     1
176
     1
 42
1.0
176
     1
 92
        0
176
     1
 66
   257
176
     1
 43
1.0
176
     1
 76
     1
176
     1
 77
     6
176
     1
 78
     2
176
     1
 67
     7
176
     1
 79
     5
176
     1
170
     0
176
     1
171
     0
176
     1
290
     0
176
     1
 93
       13
176
     1
 44
0.0
176
     1
173
     0
176
     1
  0
VISUALSTYLE
  5
38
102
{ACAD_REACTORS
330
2A
102
}
330
2A
100
AcDbVisualStyle
  2
Linepattern
 70
    14
177
     2
291
     1
 71
     2
176
     1
 72
     2
176
     1
 73
     0
176
     1
 90
        0
176
     1
 40
-0.6
176
     1
 41
-30.0
176
     1
 62
     5
 63
     7
421
 16777215
176
     1
 74
     1
176
     1
 91
        4
176
     1
 64
     7
176
     1
 65
   257
176
     1
 75
     7
176
     1
175
     7
176
     1
 42
1.0
176
     1
 92
        8
176
     1
 66
     7
176
     1
 43
1.0
176
     1
 76
     1
176
     1
 77
     6
176
     1
 78
     2
176
     1
 67
     7
176
     1
 79
     5
176
     1
170
     0
176
     1
171
     0
176
     1
290
     0
176
     1
 93
        1
176
     1
 44
0.0
176
     1
173
     0
176
     1
  0
VISUALSTYLE
  5
33
102
{ACAD_REACTORS
330
2A
102
}
330
2A
100
AcDbVisualStyle
  2
Realistic
 70
     8
177
     2
291
     0
 71
     2
176
     1
 72
     2
176
     1
 73
     0
176
     1
 90
        0
176
     1
 40
-0.6
176
     1
 41
-30.0
176
     1
 62
     5
 63
     7
421
 16777215
176
     1
 74
     1
176
     1
 91
        0
176
     1
 64
     7
176
     1
 65
   257
176
     1
 75
     1
176
     1
175
     1
176
     1
 42
1.0
176
     1
 92
        8
176
     1
 66
     8
424
  7895160
176
     1
 43
1.0
176
     1
 76
     1
176
     1
 77
     6
176
     1
 78
     2
176
     1
 67
     7
176
     1
 79
     5
176
     1
170
     0
176
     1
171
     0
176
     1
290
     0
176
     1
 93
       13
176
     1
 44
0.0
176
     1
173
     0
176
     1
  0
VISUALSTYLE
  5
37
102
{ACAD_REACTORS
330
2A
102
}
330
2A
100
AcDbVisualStyle
  2
Thicken
 70
    13
177
     2
291
     1
 71
     2
176
     1
 72
     2
176
     1
 73
     0
176
     1
 90
        0
176
     1
 40
-0.6
176
     1
 41
-30.0
176
     1
 62
     5
 63
     7
421
 16777215
176
     1
 74
     1
176
     1
 91
        4
176
     1
 64
     7
176
     1
 65
   257
176
     1
 75
     1
176
     1
175
     1
176
     1
 42
1.0
176
     1
 92
       12
176
     1
 66
     7
176
     1
 43
1.0
176
     1
 76
     1
176
     1
 77
     6
176
     1
 78
     2
176
     1
 67
     7
176
     1
 79
     5
176
     1
170
     0
176
     1
171
     0
176
     1
290
     0
176
     1
 93
        1
176
     1
 44
0.0
176
     1
173
     0
176
     1
  0
ENDSEC
  0
EOF
